<?xml version="1.0" encoding="UTF-8"?>
<svg data-name="Capa 1" xmlns="http://www.w3.org/2000/svg" width="850.37" height="964" viewBox="0 0 850.37 964">
  <g id="Oblicuo externo del abdomen" class="group">
    <path class="cls-1" id="Oblicuo externo del abdomen" d="m188.87,85.77c1.96-1.29,2.96-.73,3.02,1.68l2.26,104.94c.34,17.15-5.73,20.59-18.19,10.31l-51.63-42.58c-5.36-4.44-5.36-13.08,0-18.86,21.29-23.08,42.8-41.57,64.54-55.49Z"/>
    <path class="cls-1" id="Oblicuo externo del abdomen" d="m655.98,121.47c12.24,10.73,20.48,19.45,24.73,26.15,1.34,2.1,1.09,4.86-.5,6.96-17.83,22.97-39.39,40.43-64.71,52.39-3.94,1.84-8.38-1.01-8.21-5.2l3.86-111.22c.11-2.96,1.45-3.63,4.02-2.01,8.33,5.25,21.93,16.23,40.82,32.94Z"/>
    <path class="cls-1" id="Oblicuo externo del abdomen" d="m184.68,222.98c3.02,2.1,4.86,5.11,5.03,8.3l2.68,49.62c.39,7.15-2.35,8.69-8.21,4.61l-76.36-52.72c-4.44-3.1-6.54-8.72-5.28-14.16l8.72-37.55c.75-3.35,4.78-4.69,7.79-2.68l65.63,44.59Z"/>
    <path class="cls-1" id="Oblicuo externo del abdomen" d="m611.39,232.2c.25-4.69,3.6-9.64,8.97-13.24l61.1-40.65c2.85-1.93,6.71-.59,7.63,2.6l11.48,39.73c.67,2.43-.17,5.11-2.18,6.87-24.98,21.9-51.88,41.24-80.71,58-5.98,3.46-8.83,2.01-8.55-4.36l2.26-48.95Z"/>
    <path class="cls-1" id="Oblicuo externo del abdomen" d="m190.04,305.95c2.85,2.01,4.53,4.86,4.53,7.46l-.25,70.15c0,7.38-2.99,8.69-8.97,3.94-21.01-16.76-41.27-34.62-60.77-53.56-15.76-15.31-25.06-28.67-27.91-40.06-3.52-14.19-3.52-31.38,0-51.55.42-2.26,3.1-3.19,5.03-1.76l88.34,65.38Z"/>
    <path class="cls-1" id="Oblicuo externo del abdomen" d="m607.28,312.91c.5-3.52,2.6-6.71,5.7-8.63,30.17-18.5,58.08-39.51,83.73-63.03,4.41-4.02,7.01-3.07,7.79,2.85,2.12,16.54,2.15,31.46.08,44.76-2.01,12.74-8.91,25.14-20.7,37.21-21.79,22.3-45.32,42.66-70.57,61.1-1.59,1.17-3.94.34-4.36-1.59-4.81-23.02-5.36-47.24-1.68-72.67Z"/>
    <path class="cls-1" id="Oblicuo externo del abdomen" d="m104.13,331.18l81.55,69.65c4.27,3.6,6.71,8.8,6.62,14.16l-.34,71.08c0,2.1-2.1,3.52-4.02,2.77-32.86-12.35-59.2-32.41-79.04-60.18-7.04-9.78-10.67-21.4-10.9-34.87-.39-20.95.42-41.32,2.43-61.1.28-2.85,1.51-3.35,3.69-1.51Z"/>
    <path class="cls-1" id="Oblicuo externo del abdomen" d="m613.99,403.68l81.97-71.33c5.14-4.47,7.71-3.27,7.71,3.6v69.57c0,7.04-2.43,13.91-6.87,19.36-22.57,27.83-49.42,49.06-80.55,63.7-2.35,1.09-5.11-.42-5.45-3.02-3.58-28.61-3.74-53.61-.5-75.02.42-2.68,1.68-5.11,3.69-6.87Z"/>
    <path class="cls-1" id="Oblicuo externo del abdomen" d="m192.22,513.4c3.35,2.18,5.45,5.7,5.7,9.64,4.19,54.65,8.07,106.11,11.65,154.39,1.56,21.57,6.23,42.24,14,62.02,6.76,17.32,1.31,23.16-16.34,17.52-15.93-5.08-29.11-13.77-39.56-26.07-8.49-9.95-12.88-15.06-13.16-15.34-20.12-20.95-42.02-44.39-65.71-70.32-4.02-4.36-6.03-9.97-5.7-15.51l12.91-181.04c.61-8.27,3.94-9.44,9.97-3.52,24.92,24.59,53.67,47.33,86.25,68.23Z"/>
    <path class="cls-1" id="Oblicuo externo del abdomen" d="m604.6,520.36c.34-3.35,2.26-6.29,5.2-8.05,29.34-17.6,57.47-40.18,84.4-67.72,5.7-5.81,9.05-4.67,10.06,3.44,7.99,64.04,11.99,125.72,11.99,185.07,0,4.02-1.42,7.96-4.11,10.98-29.62,33.69-58.45,64.85-86.5,93.46-9.28,9.44-20.93,16.06-34.95,19.86-14.98,4.14-19.64-1.03-14-15.51,5.42-13.86,8.77-28.47,10.06-43.84,5.08-59.57,11.04-118.8,17.85-177.69Z"/>
  </g>
  <g id="Recto abdominal" class="group">
    <path id="Recto abdominal" class="cls-1" d="m221.22,85.77c1.17-4.27,3.86-7.71,7.46-9.47l117.85-58c11.12-5.48,20.26-2.79,27.41,8.05,7.88,12.07,11.93,26.88,12.15,44.42.28,17.49.61,29.25,1.01,35.29.89,12.8.5,24.73-1.17,35.79-1.09,7.79-5.62,14.58-12.32,18.52l-137.12,80.38c-3.1,1.84-7.12.34-8.3-3.1-17.99-53.2-20.31-103.82-6.96-151.88Z"/>
    <path id="Recto abdominal" class="cls-1" d="m370.41,192.47c9.61,3.13,15.2,8.83,16.76,17.1.06.17.08,7.43.08,21.79v103.01c0,8.05-5.87,14.92-13.75,16.18-45.26,7.38-92.78,7.01-142.57-1.09-2.85-.42-5.03-2.93-5.03-5.87.34-18.89,2.74-38.02,7.21-57.41,2.4-10.62,7.26-19.25,14.58-25.9,7.6-6.93,15.95-12.91,25.06-17.94,28.78-16.09,58.67-32.46,89.68-49.12,2.43-1.34,5.28-1.59,7.96-.75Z"/>
    <path id="Recto abdominal" class="cls-1" d="m548.19,255.58c11.4,6.48,17.71,15.53,18.94,27.16l6.62,62.11c.25,2.35-1.59,4.53-4.19,4.95-46.71,6.87-92.14,7.77-136.29,2.68-13.91-1.62-20.87-9.42-20.87-23.38v-112.9c0-25.31,10.53-31.96,31.6-19.95l104.18,59.34Z"/>
    <path id="Recto abdominal" class="cls-1" d="m566.55,73.36c11.68,5.87,18.27,15.76,19.78,29.67,5.08,46.71.64,91.5-13.33,134.36-1.26,3.77-5.62,5.53-9.05,3.6-37.88-20.95-74.99-43.08-111.31-66.38-.78-.5-7.35-3.74-19.7-9.72-11.73-5.7-17.88-15.11-18.44-28.25-1.45-35.26,1.03-68.62,7.46-100.08,4.3-21.35,15.93-27.3,34.87-17.85l109.72,54.65Z"/>
    <path id="Recto abdominal" class="cls-1" d="m381.98,366.72c4.27.59,7.46,4.11,7.38,8.21l-2.1,115.92c-.08,5.95-4.95,10.64-10.81,10.48l-128.24-4.53c-11.18-.39-17.94-6.4-20.28-18.02-5.76-28.27-6.45-57.67-2.1-88.17.34-2.43,2.26-4.44,4.69-4.86,12.96-2.4,25.93-4.72,38.89-6.96,3.24-.56,15.98-3.46,38.22-8.72,24.2-5.7,48.98-6.82,74.34-3.35Z"/>
    <path id="Recto abdominal" class="cls-1" d="m568.98,385.66c3.35.59,5.78,3.35,6.12,6.79,2.79,31.4,2.32,60.15-1.42,86.25-1.68,11.85-8.16,17.96-19.45,18.36l-127.07,4.27c-7.04.25-12.91-5.28-12.99-12.15l-2.1-112.4c-.08-6.03,4.95-11.06,11.4-11.48,24.92-1.68,48.67.06,71.24,5.2,23.36,5.36,35.65,8.16,36.88,8.38,12.29,2.24,24.75,4.5,37.38,6.79Z"/>
    <path id="Recto abdominal" class="cls-1" d="m560.26,519.77c7.96-.25,14.42,6.79,13.66,15.09-7.32,85.44-20.93,169.17-40.82,251.2-8.05,33.36-19.58,65.49-34.62,96.39-14.86,30.51-39.42,51.3-73.67,62.36-3.94,1.26-7.96-1.42-8.38-5.53-1.73-17.49-2.71-35.68-2.93-54.56-1.56-115.78-2.46-226.97-2.68-333.59,0-18.38,8.83-27.8,26.49-28.25l122.96-3.1Z"/>
    <path id="Recto abdominal" class="cls-1" d="m386.93,534.02c1.51.84,2.43,2.35,2.43,4.02,2.12,133.88.61,268.13-4.53,402.74-.08,2.26-2.1,3.86-4.27,3.52-30.34-5.36-53.25-21.04-68.73-47.02-20.95-35.26-36.46-74.34-46.52-117.26-19-80.74-31.6-164.84-37.8-252.29-.25-4.02,2.85-7.38,6.79-7.46,44.03-.78,85.19.5,123.46,3.86,9.16.84,18.89,4.14,29.17,9.89Z"/>
  </g>
  <path class="background" d="m72.7,548.69c-2.07,26.04-5,51.99-8.8,77.87-2.57,16.99-8.63,38.95-18.19,65.88-8.55,23.92-15.28,48.39-20.2,73.42-10.13,51.72-18.63,103.69-25.51,155.92v42.23h810.27c-1.14-2.6-2.3-5.18-3.5-7.75-6.64-60.14-17.36-124.75-32.19-193.83-2.24-10.51-10.64-40.23-25.23-89.18-11.68-39.11-18.86-79.21-21.54-120.28-2.4-37.44-3.63-56.52-3.69-57.25-3.74-43.47-6.48-87.03-8.21-130.67-1.01-25.65-.31-51.21,2.1-76.69,1.29-13.97,5.84-30.23,13.66-48.78,18.22-43.19,29.84-91.47,34.87-144.83,1.9-19.89,7.18-22.43,15.84-7.63,1.84,3.19,3.27,7.1,4.27,11.73,10.39,50.35,30.23,96.64,59.51,138.88,1.49,2.15,2.9,4.26,4.21,6.31v-25.63s-.01-.03-.02-.04c-28.05-53.75-50.54-107.87-67.47-162.35-6.47-20.86-11-39.52-13.61-56.01H32.33c-2.41,13.8-6.47,29.59-12.19,47.38C13.55,67.82,6.82,88.19,0,108.5v46.14c5.67-16.97,10.72-35.61,15.12-55.96.95-4.53,2.35-8.35,4.19-11.48,8.72-15.25,13.72-12.01,15,9.72,3.02,48.84,15.11,95.24,36.29,139.22,7.71,16.04,11.99,31.07,12.82,45.09,3.63,60.01,2.26,123.18-4.11,189.51-1.96,20.17-4.16,46.15-6.62,77.95ZM689.08,180.9l11.48,39.73c.67,2.43-.17,5.11-2.18,6.87-24.98,21.9-51.88,41.24-80.72,58-5.98,3.46-8.83,2.01-8.55-4.36l2.26-48.95c.25-4.69,3.6-9.64,8.97-13.24l61.1-40.65c2.85-1.93,6.71-.59,7.63,2.6Zm-77.95-90.35c.11-2.96,1.45-3.63,4.02-2.01,8.33,5.25,21.93,16.23,40.82,32.94,12.24,10.73,20.48,19.45,24.73,26.15,1.34,2.1,1.09,4.86-.5,6.96-17.82,22.97-39.39,40.43-64.71,52.39-3.94,1.84-8.38-1.01-8.21-5.2l3.86-111.22Zm-3.86,222.36c.5-3.52,2.6-6.71,5.7-8.63,30.17-18.5,58.08-39.51,83.73-63.03,4.41-4.02,7.01-3.07,7.79,2.85,2.12,16.54,2.15,31.46.08,44.76-2.01,12.74-8.91,25.14-20.7,37.21-21.79,22.3-45.32,42.66-70.57,61.1-1.59,1.17-3.94.34-4.36-1.59-4.81-23.02-5.36-47.24-1.68-72.67Zm96.39,23.05v69.57c0,7.04-2.43,13.91-6.87,19.36-22.57,27.83-49.42,49.06-80.55,63.7-2.35,1.09-5.11-.42-5.45-3.02-3.58-28.61-3.74-53.61-.5-75.02.42-2.68,1.68-5.11,3.69-6.87l81.97-71.33c5.14-4.47,7.71-3.27,7.71,3.6Zm-93.87,176.35c29.34-17.6,57.47-40.18,84.4-67.72,5.7-5.81,9.05-4.67,10.06,3.44,7.99,64.04,11.99,125.72,11.99,185.07,0,4.02-1.42,7.96-4.11,10.98-25.26,28.74-49.96,55.63-74.08,80.68-10.12,5.41-18.63,14.18-25.79,23.45-6.43,3.97-13.62,7.04-21.58,9.2-14.98,4.14-19.64-1.03-14-15.51,5.42-13.86,8.77-28.47,10.06-43.84,5.08-59.57,11.04-118.8,17.85-177.69.34-3.35,2.26-6.29,5.2-8.05ZM421.96,36.57c4.3-21.35,15.93-27.3,34.87-17.85l109.72,54.65c11.68,5.87,18.27,15.76,19.78,29.67,5.08,46.71.64,91.5-13.33,134.36-1.26,3.77-5.62,5.53-9.05,3.6-37.88-20.95-74.99-43.08-111.31-66.38-.78-.5-7.35-3.74-19.7-9.72-11.73-5.7-17.88-15.11-18.44-28.25-1.45-35.26,1.03-68.62,7.46-100.08Zm-9.55,179.62c0-25.31,10.53-31.96,31.6-19.95l104.18,59.34c11.4,6.48,17.71,15.53,18.94,27.16l6.62,62.11c.25,2.35-1.59,4.53-4.19,4.95-46.71,6.87-92.14,7.77-136.29,2.68-13.91-1.62-20.87-9.42-20.87-23.38v-112.9Zm11.06,149.11c24.92-1.68,48.67.06,71.24,5.2,23.36,5.36,35.65,8.16,36.88,8.38,12.29,2.24,24.75,4.5,37.38,6.79,3.35.59,5.78,3.35,6.12,6.79,2.79,31.4,2.32,60.15-1.42,86.25-1.68,11.85-8.16,17.96-19.45,18.36l-127.07,4.27c-7.04.25-12.91-5.28-12.99-12.15l-2.1-112.4c-.08-6.03,4.95-11.06,11.4-11.48Zm13.83,157.57l122.96-3.1c7.96-.25,14.42,6.79,13.66,15.09-7.32,85.44-20.93,169.17-40.82,251.2-8.05,33.36-19.59,65.49-34.62,96.39-14.86,30.51-39.42,51.3-73.67,62.36-3.94,1.26-7.96-1.42-8.38-5.53-1.73-17.49-2.71-35.68-2.93-54.56-1.56-115.78-2.46-226.97-2.68-333.59,0-18.38,8.83-27.8,26.49-28.25Zm-52.47,417.91c-.08,2.26-2.1,3.86-4.27,3.52-30.34-5.36-53.25-21.04-68.73-47.02-20.95-35.26-36.46-74.34-46.52-117.26-19-80.74-31.6-164.84-37.8-252.29-.25-4.02,2.85-7.38,6.79-7.46,44.03-.78,85.19.5,123.46,3.86,9.16.84,18.89,4.14,29.17,9.89,1.51.84,2.43,2.35,2.43,4.02,2.12,133.88.61,268.13-4.53,402.74Zm2.43-449.93c-.08,5.95-4.95,10.64-10.81,10.48l-128.24-4.53c-11.18-.39-17.94-6.4-20.28-18.02-5.76-28.27-6.45-57.67-2.1-88.17.34-2.43,2.26-4.44,4.69-4.86,12.96-2.4,25.93-4.72,38.89-6.96,3.24-.56,15.98-3.46,38.22-8.72,24.2-5.7,48.98-6.82,74.34-3.35,4.27.59,7.46,4.11,7.38,8.21l-2.1,115.92Zm-161.35-147.27c.34-18.89,2.74-38.02,7.21-57.41,2.4-10.62,7.26-19.25,14.58-25.9,7.6-6.93,15.95-12.91,25.06-17.94,28.78-16.09,58.67-32.47,89.68-49.12,2.43-1.34,5.28-1.59,7.96-.75,9.61,3.13,15.2,8.83,16.76,17.1.06.17.08,7.43.08,21.79v103.01c0,8.05-5.87,14.92-13.75,16.18-45.26,7.38-92.78,7.01-142.57-1.09-2.85-.42-5.03-2.93-5.03-5.87Zm-4.69-257.82c1.17-4.27,3.86-7.71,7.46-9.47l117.85-58c11.12-5.48,20.26-2.79,27.41,8.05,7.88,12.07,11.93,26.88,12.15,44.42.28,17.49.61,29.25,1.01,35.29.89,12.8.5,24.73-1.17,35.79-1.09,7.79-5.62,14.58-12.32,18.52l-137.12,80.38c-3.1,1.84-7.12.34-8.3-3.1-17.99-53.2-20.31-103.82-6.96-151.88Zm-96.89,55.49c21.29-23.08,42.8-41.57,64.54-55.49,1.96-1.29,2.96-.73,3.02,1.68l2.26,104.94c.34,17.15-5.73,20.59-18.19,10.31l-51.63-42.58c-5.36-4.44-5.36-13.08,0-18.86Zm-21.79,77.36l2.3-9.92c1.85-3.44,2.86-7.31,2.68-11.37,0-.04,0-.09,0-.13l3.75-16.14c.75-3.35,4.78-4.69,7.79-2.68l65.63,44.59c3.02,2.1,4.86,5.11,5.03,8.3l2.68,49.62c.39,7.15-2.35,8.69-8.21,4.61l-76.36-52.72c-4.44-3.1-6.54-8.72-5.28-14.16Zm-5.87,23.72c.42-2.26,3.1-3.19,5.03-1.76l88.34,65.38c2.85,2.01,4.53,4.86,4.53,7.46l-.25,70.15c0,7.38-2.99,8.69-8.97,3.94-21.01-16.76-41.27-34.62-60.77-53.56-15.76-15.31-25.06-28.67-27.91-40.06-3.52-14.19-3.52-31.38,0-51.55Zm95.63,172.66l-.34,71.08c0,2.1-2.1,3.52-4.02,2.77-32.86-12.35-59.2-32.41-79.04-60.18-7.04-9.78-10.67-21.4-10.9-34.87-.39-20.95.42-41.32,2.43-61.1.28-2.85,1.51-3.35,3.69-1.51l81.55,69.65c4.27,3.6,6.71,8.8,6.62,14.16Zm-109.21,214.74l12.91-181.04c.61-8.27,3.94-9.44,9.97-3.52,24.92,24.59,53.67,47.33,86.25,68.23,3.35,2.18,5.45,5.7,5.7,9.64,4.19,54.65,8.07,106.11,11.65,154.39,1.56,21.57,6.23,42.24,14,62.02,6.76,17.32,1.31,23.16-16.34,17.52-15.93-5.08-29.11-13.77-39.56-26.07-8.49-9.95-12.88-15.06-13.16-15.34-20.12-20.95-42.02-44.39-65.71-70.32-4.02-4.36-6.03-9.97-5.7-15.51Z"/>
</svg>