<?xml version="1.0" encoding="UTF-8"?>
<svg  data-name="Capa 1" xmlns="http://www.w3.org/2000/svg" width="904.56" height="1040" viewBox="0 0 904.56 1040">
  <g id="Tensor de la fascia lata" class="group">
    <path id="Tensor de la fascia lata" class="cls-1" d="m868.39,76.32c6.13-12.72,9.33-12.53,9.7.55,3.02,100.37.73,200.64-6.86,300.74-6.04,79.6-10.52,130.74-13.36,153.34-6.5,51.14-17.2,101.47-32.21,150.96-3.57,11.8-5.86,12.99-6.86,3.48-.09-1.46,0-3.02.09-4.76,6.95-74.02,6.31-147.94-2.01-221.87-5.49-48.58-7.5-97.35-5.95-146.3,2.56-82.98,21.68-161.76,57.46-236.14h0Z"/>
    <path id="Tensor de la fascia lata" class="cls-1" d="m24.37,76.32c1.28-11.62,4.3-11.99,9.15-1.19,50.05,112.72,67.8,230.74,53.43,353.98-10.16,87.56-11.62,172.37-4.3,254.44.27,2.65,0,4.67-.73,5.95-1.92,3.29-3.66,2.56-5.22-2.2-12.9-38.52-20.31-64.41-22.05-77.49-14.64-108.05-24.61-216.56-29.83-325.44-3.39-68.8-5.03-103.39-5.03-103.84-.82-34.77.73-69.53,4.57-104.21h0Z"/>
  </g>
  <path class="background" d="m903.25,127.19c-1.53-42.53-4.39-84.92-8.44-127.19h-423.89c3,17.37,6.71,34.64,11.19,51.8,8.23,31.38,11.35,64.32,9.24,98.81-.62,10.7,2.37,19.56,8.99,26.52-6.63-6.96-9.61-15.81-8.99-26.52,2.1-34.49-1.01-67.43-9.24-98.81-4.48-17.16-8.19-34.43-11.19-51.8H86.59c19.53,58.88,54.34,110.73,104.47,155.46,3.38,3.02,6.91,5.69,10.58,8.04-3.67-2.35-7.2-5.02-10.58-8.04C140.94,110.73,106.12,58.88,86.59,0H9.38C4.77,46.74,1.87,93.74.86,141.01c-2.29,103.02,0,205.95,6.86,308.7,2.65,40.17,7.32,80.06,14.09,119.67,6.95,40.35,20.4,80.42,40.26,120.04,3.57,6.95,5.49,14.27,5.76,22.05,1.37,32.39.18,62.31-3.57,89.66-5.22,37.79-7.87,56.82-7.87,57.09-2.84,37.6-2.2,75.12,1.83,112.54,1.92,17.66,1.19,34.68-2.1,51.05-1.22,6.06-2.24,12.13-3.36,18.19h22.91c17.67-53.71,48.17-102.88,91.88-147.38.92-.92,1.63-1.35,2.12-1.29-.49-.06-1.2.37-2.12,1.29-43.71,44.5-74.21,93.67-91.88,147.38h222.84c-.17-1-.32-2.01-.49-3.01-3.48-20.13,0-44.28,10.52-72.55,14.27-38.52,20.68-83.44,19.12-134.95,0-.27-1.01-12.44-3.02-36.51-1.92-22.6-.55-44.19,3.93-64.69,19.85-90.85,45.75-200.64,77.77-329.37,24.25-97.71,30.83-194.6,19.58-290.76-1.01-8.69,2.1-10.61,9.33-5.67,10.16,6.86,20.77,6.86,31.84,0,7.96-5.03,11.62-2.84,10.89,6.59-4.3,52.43-4.67,104.39-1.28,155.9,2.56,39.8,11.16,90.76,25.89,152.88,24.89,105.67,49.41,211.44,73.56,317.3,4.12,18.21,4.3,43.64.55,76.49-2.84,25.53-.55,64.04,6.86,115.56,1.74,11.8,5.49,23.88,11.25,36.41,7.14,15.46,11.07,27.26,11.89,35.32,1.25,12.94.72,26.66-1.44,41.07h35.63c2.02-4.65,3.97-9.34,6.16-13.89,23.7-49.22,42.36-91.68,56.08-127.36.16-.46.41-.85.72-1.17-.31.32-.56.71-.72,1.17-13.72,35.68-32.39,78.13-56.08,127.36-2.19,4.55-4.14,9.24-6.16,13.89h97.1c-1.7-48.86-3.71-97.72-6.12-146.56-.05-1.7.22-2.59.83-2.63-.62.04-.89.93-.83,2.63,2.41,48.84,4.42,97.69,6.12,146.56h113.81c-2.55-13.58-5.32-27.15-8.4-40.7-1.28-5.76-1.46-11.53-.64-17.38,8.87-57.55,8.78-111.71-.27-162.31-6.04-33.58-7.96-67.25-6.04-101.01.82-14.18,5.22-29.92,13.17-47.21,23.06-50.5,36.96-103.75,41.72-159.75,1.19-13.45,2.56-26.81,4.12-40.26,1.83-15.1,3.02-28.55,3.57-40.17,5.49-127.17,6.86-228.55,4.21-304.03ZM54.65,609.82c-14.64-108.05-24.61-216.56-29.83-325.44-3.39-68.8-5.03-103.39-5.03-103.84-.82-34.77.73-69.53,4.57-104.21h0c1.28-11.62,4.3-11.98,9.15-1.19,50.05,112.72,67.8,230.74,53.43,353.98-10.16,87.56-11.62,172.37-4.3,254.44.27,2.65,0,4.67-.73,5.95-1.92,3.29-3.66,2.56-5.22-2.2-12.9-38.52-20.31-64.41-22.05-77.49Zm81.61-464.05c-9.61,15.19-14.82,32.66-15.83,52.33-2.1,44.92-3.11,89.94-3.02,134.95.27,91.49-.55,182.99-2.38,274.48-1.37,70.17-6.31,128.91-14.64,176.12-10.16,57.55-17.84,116.1-23.06,175.57-.36,4.48.06,6.64,1.26,6.48-1.2.15-1.62-2.01-1.26-6.48,5.22-59.47,12.9-118.03,23.06-175.57,8.33-47.21,13.27-105.95,14.64-176.12,1.83-91.49,2.65-182.99,2.38-274.48-.09-45.01.91-90.03,3.02-134.95,1.01-19.67,6.22-37.15,15.83-52.33,1.59-2.47,4.31-3.71,7-3.61-2.69-.11-5.4,1.13-7,3.61Zm54.3,834.17c-.52,11.88-.5,26.5.05,43.79-.54-17.29-.56-31.91-.05-43.79Zm6.54-81.83c-1.92,16.98-3.43,33.42-4.6,49.35,1.17-15.93,2.68-32.37,4.6-49.35.16-1.36.39-2.14.68-2.35-.29.21-.52.99-.68,2.35Zm64.32-715.2c10.04,3.87,19.45,7.09,28.25,9.68-8.8-2.59-18.2-5.81-28.25-9.68-2.17-.82-7.88-2.39-17.15-4.72,9.27,2.32,14.98,3.9,17.15,4.72Zm-1.01,70.72c-12.44,29.37-19.76,59.47-22.05,90.49-2.2,29.92-3.39,45.38-3.48,46.39-4.94,44.56-8.51,89.21-10.8,133.95-1.1,20.95-3.93,65.6-8.6,134.04-6.13,91.03-3.29,180.79,8.42,269.26.91,7.04,4.12,12.9,9.52,17.38,1.36,1.2,3.49.58,4.25-1.06-.76,1.64-2.89,2.27-4.25,1.06-5.4-4.48-8.6-10.34-9.52-17.38-11.71-88.47-14.55-178.23-8.42-269.26,4.67-68.44,7.5-113.08,8.6-134.04,2.29-44.74,5.86-89.39,10.8-133.95.09-1.01,1.28-16.47,3.48-46.39,2.29-31.02,9.61-61.12,22.05-90.49.54-1.26,1.11-2.14,1.71-2.65-.6.51-1.17,1.39-1.71,2.65Zm124.52-31.02c-20.77-1.01-47.94,2.01-81.52,9.06-4.12.82-6.13,5.67-3.66,9.15,34.13,48.22,54.53,103.39,61.39,165.42,3.48,31.38-1.1,64.96-13.72,100.64,0,0,0,0,0,0,0,0,0,0,0,0-2.38.82-4.76,1.19-7.04,1.01-2.65-.18-4.94,1.28-5.4,3.39-14,63.4-27.54,126.99-40.62,190.67-5.4,26.35-8.23,55.17-8.69,86.55-.82,70.45-6.13,140.62-15.74,210.62-.27,1.37,0,2.65.64,3.48.27.37.54.6.79.7-.25-.1-.52-.34-.79-.7-.64-.82-.91-2.1-.64-3.48,9.61-69.99,14.91-140.17,15.74-210.62.46-31.38,3.29-60.2,8.69-86.55,13.08-63.68,26.62-127.27,40.62-190.67.46-2.1,2.74-3.57,5.4-3.39,2.29.18,4.67-.18,7.05-1.01h0c12.63-35.68,17.2-69.26,13.72-100.64-6.86-62.03-27.26-117.2-61.39-165.42-2.47-3.48-.46-8.33,3.66-9.15,33.58-7.05,60.75-10.06,81.52-9.06,5.48.27,10.12,1.24,13.97,2.89-3.84-1.65-8.49-2.63-13.97-2.89Zm218.43,9.62c-.13-.04-.26-.08-.4-.11-23.6-5.35-47.19-7.97-70.75-7.91,23.55-.06,47.15,2.56,70.75,7.91.14.03.27.07.4.11Zm-71.17-8.02c-1.57,0-3.14.02-4.71.05,1.57-.03,3.14-.04,4.71-.05Zm-24.02-40.76h0s0,0,0,0h0Zm29.46,298.27c-19.67-60.75-35.04-135.5-46.11-224.16-2.19-17.71,2.53-28.23,14.22-31.58-11.69,3.35-16.41,13.87-14.22,31.58,11.07,88.66,26.44,163.41,46.11,224.16h0c7.82,16.97,12.24,25.46,13.25,25.46-1.02,0-5.43-8.49-13.26-25.46Zm18.66,93.6c-4.3-19.67-4.03-40.35,1.01-62.12.06-.3.14-.58.22-.85-.09.27-.16.55-.22.85h0c-5.03,21.78-5.31,42.45-1.01,62.12,4.05,18.28,8.11,36.57,12.15,54.85-4.05-18.28-8.1-36.57-12.15-54.85Zm73.74,425.53c-2.1-1.01-3.84-3.2-4.67-6.13-18.76-67.8-29.09-133.58-30.92-197.35-1.1-37.6-4.48-69.53-10.25-95.79-3.62-16.47-7.26-32.95-10.9-49.42,3.64,16.47,7.28,32.95,10.9,49.42,5.76,26.26,9.15,58.19,10.25,95.79,1.83,63.77,12.17,129.55,30.92,197.35.82,2.93,2.56,5.12,4.67,6.13,1.92.87,3.06.61,3.43-.73-.37,1.35-1.51,1.6-3.43.73Zm-13.45-209.01s0,.03,0,.04c-.04,27.28.77,54.5,2.41,81.68-1.63-27.17-2.44-54.4-2.41-81.68,0-.01,0-.03,0-.04Zm44.19,145.24c-9.61-64.14-18.02-128.27-25.25-192.59-8.42-75.12-22.69-148.95-42.73-221.5-9.61-34.86-14.36-62.95-14.18-84.26.64-66.79,19.76-129.28,57.18-187.47h0c1.77-2.75,3.3-3.63,4.52-2.68-1.23-.95-2.75-.06-4.52,2.68h0c-37.42,58.19-56.54,120.68-57.18,187.47-.18,21.32,4.57,49.41,14.18,84.26,20.04,72.55,34.31,146.39,42.73,221.5,7.23,64.32,15.65,128.46,25.25,192.59,1.23,7.98,2.74,12.31,4.52,13.01-1.78-.7-3.29-5.03-4.52-13.01Zm155.08,19.67c-21.87-37.05-39.8-75.21-53.71-114.27-18.48-51.88-34.68-104.48-48.58-157.73-9.15-35.04-15.1-73.38-17.75-114.91-5.76-90.49-10.7-181.06-14.82-271.64-1.1-23.79,1.56-43.92,8.05-60.29,12.9-32.94,33.12-63.22,60.57-90.94,2.99-2.99,7.1-4.37,11.19-4-4.08-.38-8.2,1.01-11.19,4-27.45,27.72-47.67,58.01-60.57,90.94-6.5,16.38-9.15,36.51-8.05,60.29,4.12,90.58,9.06,181.16,14.82,271.64,2.65,41.54,8.6,79.87,17.75,114.91,13.91,53.25,30.1,105.86,48.58,157.73,13.91,39.07,31.84,77.22,53.71,114.27,2.92,5,5.09,7.64,6.49,7.93-1.4-.28-3.57-2.92-6.49-7.93Zm55.35-579.15c-6.04,79.6-10.52,130.74-13.36,153.34-6.5,51.14-17.2,101.46-32.21,150.96-3.57,11.8-5.86,12.99-6.86,3.48-.09-1.46-.09-3.02.09-4.76,6.95-74.02,6.31-147.94-2.01-221.87-5.49-48.58-7.5-97.35-5.95-146.3,2.56-82.98,21.68-161.76,57.46-236.14h0c6.13-12.72,9.33-12.53,9.7.55,3.02,100.37.73,200.64-6.86,300.74Z"/>
</svg>