<?xml version="1.0" encoding="UTF-8"?>
<svg data-name="Capa 1" xmlns="http://www.w3.org/2000/svg" width="965.51" height="1042" viewBox="0 0 965.51 1042">
  <path class="background" d="m964.85,490.78c-1.86-106.57-17.49-228.19-46.79-364.75-2.64-12.21-12.41-46.89-29.4-103.94-2.18-7.32-4-14.71-5.91-22.09h-48.04c-15.38,17.34-30.6,34.13-45.64,50.31-15.04,16.18-29.9,31.77-44.58,46.71-8.13,8.28-17.8,14.69-29.01,19.23,11.21-4.54,20.88-10.95,29.01-19.23,14.68-14.94,29.54-30.52,44.58-46.71s30.26-32.97,45.64-50.31H82.58c-3.6,13.27-8.24,28.03-14.08,44.46-9.96,27.84-17.78,56.36-23.54,85.57-15.63,79.81-27.94,160.1-36.92,240.89C3.45,412.83.81,478.76.13,568.93c-1.07,144.47,4.69,264.92,17.09,361.43,5.21,40.35,14.1,77.51,26.51,111.64h32.85c-6.92-17.29-12.21-32.03-15.94-44.33,3.74,12.3,9.03,27.04,15.94,44.33h60.48c-15.55-44.06-29.83-89.49-42.86-136.31-21.7-78.03-39.89-159.91-54.51-245.73-1.27-7.42-4.59-14.36-9.67-19.93-8.63-9.49-13.23-7.68-13.72,5.55.49-13.23,5.08-15.04,13.72-5.55,5.08,5.57,8.4,12.5,9.67,19.93,14.62,85.82,32.81,167.7,54.51,245.73,13.02,46.82,27.31,92.25,42.86,136.31h143.01c5.53-56.14,8.46-112.76,8.78-169.86-.32,57.09-3.25,113.72-8.78,169.86h59.29c.06-28.9-2.15-57.65-6.64-86.23-2.99-19.05-6.98-38.04-11.99-56.95-7.51-28.37-17.28-56.57-29.31-84.61-2.25-5.18-3.22-4.98-3.13.68h0c-.1-5.67.88-5.86,3.13-.68,12.03,28.04,21.8,56.25,29.31,84.61,5,18.91,9,37.89,11.99,56.95,4.48,28.58,6.69,57.32,6.64,86.23h33.61c19.09-82.66,38.16-165.32,57.46-247.91,14.95-63.79,23.54-117.22,25.89-160.2,2.93-53.43,2.15-107.84-2.25-163.03-.49-5.37,1.56-6.54,5.96-3.52,13.68,9.28,26.57,10.06,38.59,2.15,8.69-5.67,12.6-3.32,11.53,7.03-5.18,54.02-6.15,107.84-2.83,161.28,2.54,40.93,11.43,93.68,26.77,158.35,19.44,81.88,38.55,163.87,57.64,245.86h330.36c2.8-8.03,5.36-16.16,7.43-24.51,14.26-57.54,23.35-115.95,27.16-175.15,7.52-117.03,10.26-234.25,8.21-351.56ZM16.34,651.96c.43,11.09,1.13,22.16,1.93,33.21-.8-11.05-1.5-22.12-1.93-33.21-.1-2.33-.11-4.41-.04-6.29-.07,1.87-.06,3.96.04,6.29Zm385.95-183.74c7.42,25.5,9.08,45.62,4.98,60.56-5.57,20.42-18.27,37.9-38.1,52.65-3.13,2.34-7.62,1.07-9.08-2.64-14.55-38.39-28.43-76.78-41.52-115.17-37.22-109.02-81.18-215.2-132.07-318.45-8.3-16.9-15.24-34.87-20.71-54.02-2.64-9.18-.49-10.45,6.25-3.71,9.57,9.67,20.42,19.73,32.63,30.28h0c9.48,8.3,18.36,17.39,26.47,27.25,79.42,96.22,136.46,203.96,171.14,323.24Zm-126.4-368.95c1.98,5.06,3.06,9.27,3.26,12.64-.2-3.37-1.28-7.59-3.26-12.64-4.54-11.53-8.16-23.32-10.87-35.37,2.71,12.05,6.33,23.85,10.87,35.37Zm105.3,787.43c-.68,42.88-6.25,85.38-16.51,127.48-2.15,8.69-4,8.6-5.47-.19-22.86-131.19-50.8-262.67-83.72-394.25-40.44-161.47-83.62-322.36-129.43-482.56-4.4-15.53-3.32-15.92,3.42-1.27,38.19,83.13,75.61,168.31,112.24,255.74,49.92,118.88,85.67,241.57,107.35,368.07,8.69,50.31,12.7,92.6,12.11,126.99Zm23.44-64.86c-2.54,10.45-4.49,10.35-5.86-.39-6.06-46.5-13.68-91.53-22.76-135.19-4.4-21-6.74-42.2-7.03-63.59,0-3.32.98-6.45,2.83-8.89l47.96-63.3c11.82-15.73,17.68-13.68,17.49,6.15-.78,89.38-11.62,177.79-32.63,265.21Zm525.15-176.22h0c-1.1,1.64-2.09,3.3-2.99,5,.89-1.7,1.89-3.37,2.99-5ZM687.43,102.09c1.59-4.03,3.02-8.12,4.3-12.27-1.28,4.15-2.72,8.24-4.3,12.27-1.64,4.22-2.53,7.77-2.67,10.63.14-2.86,1.04-6.4,2.67-10.63Zm109.02-17.49c2.54-2.25,3.42-1.66,2.74,1.66-3.03,12.99-7.33,25.01-12.89,35.95-36.24,71.21-68.28,144.28-95.93,219.2-28.62,77.27-56.36,153.75-83.32,229.26-3.03,8.4-13.68,10.94-20.22,4.79-12.6-11.82-21.98-25.3-28.33-40.25-5.57-13.19-5.96-28.72-1.37-46.6,17.97-69.84,49.53-145.84,94.56-227.99,36.44-66.52,84.69-125.23,144.77-176.03Zm-228.97,726.57c-.29,3.22-.78,6.45-1.66,9.48-.88,3.61-2.54,3.91-4.79.98-5.27-6.74-8.89-16.31-10.75-28.62-12.21-80.78-20.32-159.03-24.52-234.73-1.37-24.91,5.08-27.35,19.24-7.52l48.55,67.79c1.66,2.34,2.34,5.47,1.86,8.89-8.11,56.66-17,113.12-26.77,169.48-.29,1.56-.68,6.35-1.17,14.26Zm57.54,194.69c-.2,2.51-.36,5.15-.48,7.92-.12,2.77-.2,5.66-.23,8.67.04-3.02.12-5.91.23-8.67.12-2.77.28-5.41.48-7.92.68-8.45,1.54-16.86,2.56-25.24-1.02,8.38-1.87,16.79-2.56,25.24Zm21.09-117.49c7.44-26.53,16.59-52.7,27.66-78.46,3.5-8.12,5.21-8.84,5.19-2.15.02-6.69-1.69-5.97-5.19,2.15-11.06,25.76-20.21,51.93-27.66,78.46Zm-11.24,46.97c.67-3.39,1.38-6.78,2.11-10.16-.73,3.38-1.44,6.76-2.11,10.16Zm42.08-9.35c-.22-9.62-.35-19.23-.38-28.83.03,9.6.16,19.21.38,28.83.67,28.86,2.19,57.83,4.57,86.9-2.37-29.07-3.9-58.03-4.57-86.9Zm-61.31,26.34c-1.76,8.4-4.79,30.38-9.18,65.94-.39,3.32-1.17,3.42-2.34.39-11.43-30.77-17.97-62.62-19.63-95.63-3.81-71.02,1.95-141.15,17.09-210.41,17.97-82.45,41.81-163.13,71.6-242.16,38.59-102.47,84.4-210.51,137.44-324.02h0c8.3-17.88,9.77-17.29,4.3,1.66-74.92,259.45-141.35,527.49-199.28,804.23Zm159.52-552.89c-21.98,65.16-40.34,131.29-55.29,198.2-14.95,67.4-24.03,131.78-27.25,193.12-1.08,21.01-1.68,42-1.8,62.97.12-20.97.72-41.96,1.8-62.97,3.22-61.35,12.31-125.72,27.25-193.12,14.95-66.91,33.31-133.05,55.29-198.2,26.86-79.71,51.58-159.32,74.34-238.74.44-1.51.95-2.3,1.55-2.36.6-.06,1.28.6,2.06,1.97,53.7,97.37,80.75,199.73,81.16,307.02-.4-107.28-27.46-209.65-81.16-307.02-.78-1.37-1.47-2.03-2.06-1.97-.6.06-1.11.84-1.55,2.36-22.76,79.42-47.47,159.03-74.34,238.74Zm108.65,457.39c7.81-31.26,14.87-62.71,21.16-94.37,6.3-31.66,11.83-63.51,16.61-95.56.27-1.93.64-3.82,1.12-5.66-.48,1.85-.85,3.73-1.12,5.66-4.78,32.05-10.31,63.91-16.61,95.56-6.3,31.66-13.35,63.11-21.16,94.37Z"/>
  <g id="Psoas" class="group">
    <path id="Psoas" class="cls-1" d="m204.68,117.72c9.48,8.3,18.36,17.39,26.47,27.25,79.42,96.22,136.46,203.96,171.14,323.24,7.42,25.5,9.08,45.62,4.98,60.56-5.57,20.42-18.27,37.9-38.1,52.65-3.13,2.34-7.62,1.07-9.08-2.64-14.55-38.39-28.43-76.78-41.52-115.17-37.22-109.02-81.18-215.2-132.07-318.45-8.3-16.9-15.24-34.87-20.71-54.02-2.64-9.18-.49-10.45,6.25-3.71,9.57,9.67,20.42,19.73,32.63,30.28h0Z"/>
    <path id="Psoas" class="cls-1" d="m586.82,575.47c-12.6-11.82-21.98-25.3-28.33-40.25-5.57-13.19-5.96-28.72-1.37-46.6,17.97-69.84,49.53-145.84,94.56-227.99,36.44-66.52,84.69-125.23,144.77-176.03,2.54-2.25,3.42-1.66,2.74,1.66-3.03,12.99-7.33,25.01-12.89,35.95-36.24,71.21-68.28,144.28-95.93,219.2-28.62,77.27-56.36,153.75-83.32,229.26-3.03,8.4-13.68,10.94-20.22,4.79Z"/>
  </g>
  <g id="Aductor mayor" class="group">
    <path id="Aductor mayor" class="cls-1" d="m364.68,1014.17c-2.15,8.69-4.01,8.6-5.47-.2-22.86-131.19-50.8-262.67-83.72-394.25-40.44-161.47-83.62-322.36-129.43-482.56-4.4-15.53-3.32-15.92,3.42-1.27,38.19,83.13,75.61,168.31,112.24,255.74,49.92,118.88,85.67,241.57,107.35,368.07,8.69,50.31,12.7,92.6,12.11,126.99-.68,42.88-6.25,85.38-16.51,127.48Z"/>
    <path id="Aductor mayor" class="cls-1" d="m810.61,146.44c8.3-17.88,9.77-17.29,4.3,1.66-74.92,259.45-141.35,527.49-199.28,804.23-1.76,8.4-4.79,30.38-9.18,65.94-.39,3.32-1.17,3.42-2.34.39-11.43-30.77-17.97-62.62-19.63-95.63-3.81-71.02,1.95-141.15,17.09-210.41,17.97-82.45,41.81-163.13,71.6-242.16,38.59-102.47,84.4-210.51,137.44-324.02Z"/>
  </g>
  <g id="Aductor largo" class="group">
    <path id="Aductor largo" class="cls-1" d="m419.78,550.46c11.82-15.73,17.68-13.68,17.49,6.15-.78,89.38-11.62,177.79-32.63,265.21-2.54,10.45-4.49,10.35-5.86-.39-6.06-46.5-13.68-91.53-22.76-135.19-4.4-21-6.74-42.2-7.03-63.59,0-3.32.98-6.45,2.83-8.89l47.96-63.3h0Z"/>
    <path id="Aductor largo" class="cls-1" d="m567.48,811.18c-.29,3.22-.78,6.45-1.66,9.48-.88,3.61-2.54,3.91-4.79.98-5.27-6.74-8.89-16.31-10.75-28.62-12.21-80.78-20.32-159.03-24.52-234.73-1.37-24.91,5.08-27.35,19.24-7.52l48.55,67.79c1.66,2.34,2.34,5.47,1.86,8.89-8.11,56.66-17,113.12-26.77,169.48-.29,1.56-.68,6.35-1.17,14.26h0Z"/>
  </g>
</svg>