<?xml version="1.0" encoding="UTF-8"?>
<svg  data-name="Capa 1" xmlns="http://www.w3.org/2000/svg" width="1346.57" height="1054.74" viewBox="0 0 1346.57 1054.74">
 <g id="Triceps braquial - Cabeza medial" class="group">
  <path id="Triceps braquial - Cabeza medial" class="avalible" d="m1099.58,375.39c21.75-26.19,47.34-49.44,76.78-69.75,1.87-1.31,4.41-.19,4.78,2.06l22.97,135.37c.56,2.91-.47,5.81-2.53,7.78-10.37,9.81-21.87,18.84-34.5,27.09-29.06,19.19-53.28,41.75-72.65,67.68-12.75,17.06-22.06,15.34-27.94-5.16-17.69-62.18-6.66-117.21,33.09-165.09Z"/>
 </g>
 <g id="Triceps braquial - Cabeza lateral" class="group">
  <path id="Triceps braquial - Cabeza lateral" class="avalible" d="m1028.81,517.32c1.31-4.5,3.06-4.66,5.25-.47,17.56,33.31,30.91,65.93,40.03,97.87,3.81,13.31,3.06,27.5-2.25,42.56-5.25,14.94-7.97,22.69-8.16,23.25-11.87,40.94-26.53,80.87-43.97,119.81-1.03,2.25-3.84,3.09-5.91,1.59-11.12-8-16.91-19.62-17.34-34.87-2.37-82.25,8.41-165.49,32.34-249.74Z"/>
 </g>
 <g id="Triceps braquial - Cabeza larga" class="group">
  <path id="Triceps braquial - Cabeza larga" class="avalible" d="m1111.02,557.92c25.19-29.62,55.5-57.87,90.93-84.75,5.06-3.84,12.37-.94,13.5,5.34,6.25,34.75,3.91,66.97-7.03,96.65-8.25,22.31-12.44,33.69-12.56,34.12-3.94,13.5-7.62,27.09-11.06,40.78-4.56,18.56-13.31,34.94-26.25,49.12-8.19,9.12-14.78,19.16-19.78,30.09-2.56,5.62-5.03,17.09-7.41,34.4-4.81,34.06-21.97,63.87-51.47,89.43-7.44,6.44-11.66,4.78-12.66-4.97-1.69-15.69-2.28-31.15-1.78-46.4.38-11.5,2.56-26.69,6.56-45.56,7.06-33.12,12.97-66.47,17.72-100.03.13-.81.75-15.97,1.87-45.47.81-21,7.28-38.59,19.41-52.78Z"/>
 </g>
  <g id="Biceps braquial - Vientre corto" class="group">
  <path id="Biceps braquial - Vientre corto" class="avalible" d="m295.42,404.89c10.56,11.19,16.69,27.34,18.37,48.47,2.56,31.25-.31,61.9-8.62,91.96-14.75,53.12-34.31,96.53-58.68,130.21-8.31,11.44-23,21.25-44.06,29.44-28.25,11-41.25.56-39-31.31,1.62-22.31,3.09-44.65,4.41-67.03,1.69-28.87,4.53-51.06,8.53-66.56,13.06-50.25,38.28-95.28,75.65-135.09,14.44-15.37,28.9-15.41,43.4-.09Z"/>
 </g>
  <g id="Biceps braquial - Vientre largo" class="group">
  <path id="Biceps braquial - Vientre largo" class="avalible" d="m242.36,777.91c-10.94-11.81-12.31-25.28-4.12-40.4,4.12-7.62,6.28-11.59,6.47-11.91,42.56-90.81,79.4-183.84,110.53-279.08,3.81-11.81,8.59-30.97,14.34-57.47,3.62-16.62,8.56-35.75,14.81-57.37,3.44-12.06,7.91-12.47,13.41-1.22,14.81,30.31,21.47,64.22,19.97,101.71-.75,20.44-6.25,46.59-16.5,78.47-8.25,25.56-16.66,51.03-25.22,76.4-22.87,67.68-58.15,130.99-105.84,189.93-8.87,11.06-18.16,11.37-27.84.94Z"/>
 </g>
  <path  id="" class="background" d="m463.97,4.6c-.25,0-10.44-1.16-30.56-3.47-39.31-4.37-75.87,3.97-109.68,25.03-25.25,15.75-50.81,38.65-76.68,68.72-36.75,42.69-55.5,90.34-56.25,142.96-.94,68.06,1.41,136.03,7.03,203.9.69,8.56-3.53,20.62-12.66,36.19-8.19,14-13.69,25.28-16.5,33.84-16.37,49.87-24.62,103.59-24.75,161.15-.06,10.69-3.44,20.22-10.12,28.59-45.19,56.19-78.93,117.78-101.25,184.77-8.88,26.62-18.94,77.78-30.19,153.46-.75,5.01-1.58,10-2.37,15.01h234.66c17.94-35,33.39-71.04,46.14-108.19,7.25-21.12,12.56-44.03,15.94-68.72,4.19-30.94,6.37-54.43,6.56-70.5.31-30.31,12.03-61.56,35.15-93.75,24.5-34.06,43.56-82.59,57.18-145.59,1.06-5.06,2.62-9.34,4.69-12.84,9.75-17.06,15.34-13.44,16.78,10.87,3.38,54.62,16.91,106.53,40.59,155.71,8.62,17.94,13.41,34.75,14.34,50.44,4.06,67.12,2.53,137.78-4.59,211.96-1.83,18.93-3.87,42.51-6.1,70.6h46.23V.94c-14.27,2.8-28.78,4.15-43.6,3.66Zm-30.7,243.54c-1,12.78-1.19,25.8-.56,39.07.63,13.27,2.06,26.78,4.31,40.53-2.25-13.76-3.69-27.27-4.31-40.53-.62-13.27-.44-26.29.56-39.07Zm42.22-112.85c-5.63,5.87-10.58,12.22-15,18.98,4.41-6.75,9.37-13.11,15-18.98ZM163.43,673.66c1.62-22.31,3.09-44.65,4.41-67.03,1.69-28.87,4.53-51.06,8.53-66.56,13.06-50.25,38.28-95.28,75.65-135.09,14.44-15.37,28.9-15.41,43.4-.09,10.56,11.19,16.69,27.34,18.37,48.47,2.56,31.25-.31,61.9-8.63,91.96-14.75,53.12-34.31,96.53-58.68,130.21-8.31,11.44-23,21.25-44.06,29.44-28.25,11-41.25.56-39-31.31Zm254.33-241.49c-.75,20.44-6.25,46.59-16.5,78.47-8.25,25.56-16.66,51.03-25.22,76.4-22.87,67.68-58.15,130.99-105.84,189.93-8.87,11.06-18.16,11.37-27.84.94-10.94-11.81-12.31-25.28-4.12-40.4,4.12-7.62,6.28-11.59,6.47-11.91,42.56-90.81,79.4-183.84,110.53-279.08,3.81-11.81,8.59-30.97,14.34-57.47,3.63-16.62,8.56-35.75,14.81-57.37,3.44-12.06,7.91-12.47,13.41-1.22,14.81,30.31,21.47,64.22,19.97,101.71Z"/>
  <path id="" class="background" d="m1346.57,889.43c-1.7-9.79-3.36-19.71-5.09-29.41,1.73,9.7,3.39,19.61,5.09,29.41V.38c-11.23,1.69-24.08,2.55-38.97,2.37-20.81-.19-41.62-.47-62.43-.84-27.62-.5-53.09,6.5-76.4,21-26.62,16.5-50.9,35.9-72.84,58.22-35.87,36.31-56.97,79.84-63.28,130.59-6.62,52.87-6.5,105.75.38,158.62,2.44,18.87,3.62,42.31,3.56,70.31-.06,6.56-1.56,12.75-4.5,18.56-30.31,59.68-45.97,120.12-46.97,181.3-.06.44.09,5.09.47,13.97.75,19.62-5.5,37.81-18.75,54.56-33.62,42.62-60.87,89.53-81.75,140.71-13.94,34.25-26.22,83.22-36.84,146.9-3.22,19.21-6.38,38.44-9.58,57.66h231.87c7.82-15.14,15.83-30.59,24.07-46.41,28.69-55.06,45.03-122.09,49.03-201.08.87-17.31,2.09-29.69,3.66-37.12,3.25-15.69,7.94-27.31,14.06-34.87,19.44-23.81,33.5-46.47,42.19-67.97,9.19-22.62,21.31-60.5,36.37-113.62,2.12-7.62,5.75-9.97,10.87-7.03,2.34,1.31,3.94,4.12,4.31,7.5,4.44,37.06,10.41,73.84,17.91,110.34,3.25,15.56,10.97,34.47,23.16,56.72,11.06,20.25,16.91,45.84,17.53,76.78,1.37,68.93-1.59,137.59-8.91,205.96-.09,1-1.29,17.99-3.59,50.82h6.38c2.57-13.24,6.1-26.43,10.62-39.57,4.75-13.81,10.78-23.44,18.09-28.87,3.46-2.55,6.88-4.03,10.28-4.65v-91.79Zm-246.99-514.03c21.75-26.19,47.34-49.44,76.78-69.75,1.88-1.31,4.41-.19,4.78,2.06l22.97,135.37c.56,2.91-.47,5.81-2.53,7.78-10.37,9.81-21.87,18.84-34.5,27.09-29.06,19.19-53.28,41.75-72.65,67.68-12.75,17.06-22.06,15.34-27.94-5.16-17.69-62.18-6.66-117.21,33.09-165.09Zm-79.87,424.95c-1.03,2.25-3.84,3.09-5.91,1.59-11.12-8-16.91-19.62-17.34-34.87-2.37-82.25,8.41-165.49,32.34-249.74,1.31-4.5,3.06-4.66,5.25-.47,17.56,33.31,30.91,65.93,40.03,97.87,3.81,13.31,3.06,27.5-2.25,42.56-5.25,14.94-7.97,22.69-8.16,23.25-11.87,40.94-26.53,80.87-43.97,119.81Zm188.71-225.18c-8.25,22.31-12.44,33.69-12.56,34.12-3.94,13.5-7.62,27.09-11.06,40.78-4.56,18.56-13.31,34.94-26.25,49.12-8.19,9.12-14.78,19.16-19.78,30.09-2.56,5.62-5.03,17.09-7.41,34.4-4.81,34.06-21.97,63.87-51.47,89.43-7.44,6.44-11.66,4.78-12.66-4.97-1.69-15.69-2.28-31.16-1.78-46.4.38-11.5,2.56-26.69,6.56-45.56,7.06-33.12,12.97-66.47,17.72-100.03.13-.81.75-15.97,1.88-45.47.81-21,7.28-38.59,19.41-52.78,25.19-29.62,55.5-57.87,90.93-84.75,5.06-3.84,12.37-.94,13.5,5.34,6.25,34.75,3.91,66.97-7.03,96.65Zm50.62-74.72c-10.75-24.06-17.78-49.65-21.09-76.78-.15-1.33-.14-2.41.03-3.25-.17.84-.19,1.92-.03,3.25,3.31,27.12,10.34,52.72,21.09,76.78,6.94,15.63,12.58,28.35,16.92,38.14-4.34-9.8-9.99-22.51-16.92-38.14Zm38.72,118.78c-.44-4.77-.99-9.51-1.66-14.22-2.02-14.14-5.09-28.06-9.21-41.75,4.12,13.69,7.19,27.6,9.21,41.75.67,4.71,1.23,9.45,1.66,14.22.3,3.22.61,6.33.92,9.32-.31-3-.61-6.1-.92-9.32Zm7.41,55.97c-.62-2.89-1.25-6.22-1.87-10,.62,3.78,1.24,7.11,1.87,10,3.21,14.91,6.38,29.94,9.49,45.09-3.12-15.15-6.28-30.18-9.49-45.09Z"/>

</svg>