<?xml version="1.0" encoding="UTF-8"?>
<svg  data-name="Capa 1" xmlns="http://www.w3.org/2000/svg" width="975.17" height="1080" viewBox="0 0 975.17 1080">
  <g id="Sello" class="groupSello">
    <path class="background" d="m235.22,6.08c1.4,4.89,3.49,15.71,4.54,24.43,3.14,26.52,4.89,31.41,10.47,31.41,4.54,0,5.24-2.44,2.79-13.26-1.4-6.98-2.44-16.75-2.44-21.64.35-4.54-3.49-13.26-8.73-19.2-8.38-10.12-8.73-10.12-6.63-1.75Z"/>
    <path class="background" d="m673.92,20.04c-5.24,5.24-6.98,11.52-6.98,24.78,0,12.56-1.4,17.1-4.19,16.05-2.44-.7-4.19-5.58-3.49-10.82,1.05-8.38,0-9.42-6.98-8.38-6.63.7-8.03,3.14-8.03,13.26s1.75,12.91,10.47,17.1c8.38,4.19,9.42,5.58,4.19,6.63-3.84.7-14.31-3.49-24.08-9.42-9.42-5.93-19.2-10.82-21.64-10.82-4.54,0-9.07,15.01-9.07,29.32.35,6.63.7,6.28,5.58-2.44,6.28-11.52,9.07-11.52,22.34-2.09,8.03,6.28,12.91,6.98,24.08,5.24,17.8-2.79,17.8-1.75,2.09,38.04-6.63,17.1-11.17,31.76-9.77,32.81,1.05,1.05,2.79,0,3.49-2.44,1.05-2.44,5.24-8.73,9.77-13.96,10.12-12.22,22.69-35.6,22.69-42.93,0-2.79,3.84-9.07,8.73-13.61,10.12-9.42,11.17-15.36,2.79-12.56-3.49,1.05-10.82,2.79-16.75,4.19-8.73,1.75-9.77,1.4-5.93-2.44,2.09-2.44,4.19-12.91,4.19-23.38,0-13.26,2.09-21.64,7.33-28.97,5.93-8.38,6.28-10.12,1.75-10.12-3.14,0-8.73,3.14-12.56,6.98Z"/>
    <path class="background" d="m295.6,41.68c-3.14,4.19-5.58,9.77-5.58,11.87,0,4.54-7.68,8.38-17.1,8.38-3.14,0-11.52,3.14-18.85,6.63-9.42,4.89-12.91,5.24-12.91,2.09,0-2.44-5.58-8.73-12.22-13.61-6.63-5.24-12.22-8.73-12.22-8.03s2.44,8.73,5.58,17.45c3.14,9.07,4.89,22.69,4.19,30.36l-1.05,13.96,13.61-13.26c7.33-6.98,12.22-10.47,10.47-7.68s-3.14,18.15-3.14,33.51v28.62l19.2-13.61c10.82-7.68,20.59-13.61,21.64-13.61s3.14,6.63,4.19,15.01c1.4,8.03,5.24,19.54,9.07,25.13,10.12,15.36,9.07,20.59-3.84,17.8-13.61-2.79-12.22,5.24,1.75,8.73,5.58,1.4,12.56,5.24,16.05,8.38,11.17,10.12,11.52-3.84,1.05-25.83-8.38-16.4-9.77-24.08-9.77-48.16,0-28.97-.7-30.01-13.96-18.5-8.38,7.68-29.67,12.56-29.67,7.33,0-2.09,4.54-5.93,10.47-9.07,9.77-5.24,20.94-19.2,15.01-19.2-1.75,0-6.63,2.44-10.82,5.58-12.22,8.38-13.96,2.44-2.44-7.33,12.22-9.77,10.82-10.82-6.63-3.49-6.98,2.79-12.56,4.54-12.56,3.49,0-4.19,24.78-12.22,38.39-12.22s13.96-.7,12.22-8.03c-1.05-4.19-2.44-12.91-2.79-18.85-.35-6.28-1.05-11.52-1.4-11.52s-3.14,3.49-5.93,7.68Z"/>
    <path class="background" d="m607.61,104.5c-11.87,16.05-10.82,17.8,11.17,21.64,12.56,2.44,20.24,9.77,20.24,19.89,0,2.44-3.49,1.4-8.03-3.14-7.33-6.98-8.73-6.98-17.8-2.44-5.58,2.79-12.22,5.24-15.01,5.24s-3.84,1.4-2.79,3.49c3.14,4.89,41.53,4.19,46.42-.7,5.93-5.93,5.58-30.71-.35-30.71s-18.5-13.26-15.36-16.05c1.05-1.4,6.98-.7,12.91,1.4,9.77,3.49,10.12,3.49,6.98-2.44-1.75-3.49-5.93-7.33-9.07-8.73-12.22-4.54-19.2-1.75-29.32,12.56Z"/>
    <path class="background" d="m547.23,136.26c-7.33,10.82-15.36,19.89-17.8,19.89-5.58,0-18.15,13.61-20.94,23.03-2.09,6.63-5.58,7.68-26.52,9.07-20.59,1.05-25.83,2.79-33.51,10.12l-8.73,9.07,27.22-.35c15.01-.35,32.11.7,38.04,2.09,10.47,2.44,11.17,1.75,13.26-9.07,1.4-6.28,6.28-15.36,11.17-19.89,13.61-12.91,33.51-47.47,32.11-56.19-.7-6.63-3.14-4.89-14.31,12.22Z"/>
    <path class="background" d="m355.63,140.8c1.05,10.82-.35,25.13-2.79,32.81-3.84,11.87-3.84,13.61,3.14,20.59,3.84,3.84,7.33,9.42,7.33,11.87,0,6.63-7.33,12.91-14.66,12.91-3.49,0-14.66,4.19-24.43,9.07-18.15,9.07-23.38,8.03-23.73-4.89,0-3.14-3.49-4.19-9.42-3.49-9.42,1.05-9.77,2.09-9.77,19.2.35,20.94-2.79,22.69-25.13,13.26-6.98-2.79-13.26-4.89-13.96-4.19s.7,6.28,2.79,12.56c4.89,14.31,1.75,30.71-8.38,42.23-17.45,18.85-40.14,62.82-32.46,62.82,1.05,0,4.89-5.93,8.73-13.26,3.84-7.33,14.31-20.24,23.73-28.62,21.99-20.24,28.97-30.71,28.97-44.32,0-10.82.7-11.17,12.22-10.12,9.42.7,14.66-1.75,25.13-11.17,17.1-15.01,45.02-28.62,59.68-28.62,6.28,0,14.66-1.75,18.85-3.84q6.98-3.84-2.44-13.61c-10.12-10.82-15.36-29.32-15.71-57.59,0-19.2-3.14-33.16-6.63-33.16-1.4,0-2.09,8.73-1.05,19.54Z"/>
    <path class="background" d="m569.22,150.22c0,.7,1.75,6.28,3.84,12.56,2.79,7.68,5.58,10.47,9.07,9.42,2.79-1.05,9.07-2.09,13.61-2.09,11.17,0,10.47-5.58-1.05-11.52-11.52-5.93-25.48-10.47-25.48-8.38Z"/>
    <path class="background" d="m440.78,170.81c-8.03,6.28-14.31,12.56-14.31,13.96-.35,4.54,11.17,3.14,22.34-2.79,6.63-3.49,17.45-4.89,32.46-4.19,20.94,1.05,22.69.35,23.73-6.63,1.4-9.07-6.98-12.91-16.05-7.33-5.24,3.49-7.68,3.49-11.17,0-7.33-7.33-22.34-4.54-37,6.98Z"/>
    <path class="background" d="m607.61,175.7c-4.54,11.52-4.54,49.21,0,52,2.09,1.4,3.49-3.14,3.49-11.17,0-16.05,10.12-36.3,20.59-41.53,13.26-6.63,12.22-8.38-4.54-8.38-14.31,0-16.75,1.05-19.54,9.07Z"/>
    <path class="background" d="m893.8,177.1c-4.19,2.44-4.19,4.19,1.4,10.12,4.54,5.24,5.93,10.12,4.54,17.45-2.09,10.12-1.75,10.47,6.28,6.63,4.89-2.09,8.73-5.58,8.73-7.33,0-2.09,2.44-6.28,5.58-9.77,4.89-5.24,4.54-6.63-4.19-13.26-10.12-8.03-14.66-8.73-22.34-3.84Z"/>
    <path class="background" d="m398.9,181.28c1.05,2.44,5.24,4.89,10.12,5.58q8.03.7,1.75-4.54c-8.38-6.28-13.61-6.98-11.87-1.05Z"/>
    <path class="background" d="m578.64,195.94c-19.2,19.89-19.89,21.99-4.54,16.05,9.07-3.14,29.32-30.01,25.48-33.51-1.05-1.05-10.47,6.63-20.94,17.45Z"/>
    <path class="background" d="m335.38,190.36c0,3.49-4.54,10.82-10.12,16.05-10.12,9.42-16.4,23.03-10.82,23.03,1.4,0,4.54-2.44,6.98-5.24s6.28-5.24,9.07-5.24c2.44,0,6.28-3.14,8.38-6.63,4.54-8.73,4.54-28.27,0-28.27-1.75,0-3.49,2.79-3.49,6.28Z"/>
    <path class="background" d="m866.23,201.53c-4.54,3.84-10.82,6.98-13.96,6.98s-7.68,1.75-10.12,4.19c-3.14,3.14-4.19,3.14-4.19,0,0-9.07-15.71-3.49-30.01,11.17-14.31,14.31-15.36,16.4-15.36,34.55,0,11.17-1.75,20.59-4.19,21.99-2.79,1.75-2.09,3.14,2.09,4.89,3.49,1.05,6.28,3.49,6.28,5.24,0,2.09,1.4,6.28,3.49,9.77,2.09,4.54,2.09,8.03-1.05,11.52-5.93,6.98-12.91,5.93-24.78-3.84-5.93-4.89-14.66-8.73-20.59-8.73s-13.61-1.75-17.8-3.84c-3.84-2.09-7.68-2.79-8.73-1.75-4.19,4.19,7.33,23.73,19.89,33.51,8.73,6.98,13.96,14.31,15.36,22.34,2.09,11.52,13.96,30.01,19.2,30.01,1.75,0,1.4-8.03,0-18.15-2.09-13.26-5.93-20.94-13.96-29.67-15.01-15.36-10.47-18.85,5.93-4.54,11.17,9.42,14.66,10.82,25.48,9.07,17.45-2.79,21.64-9.77,19.2-31.41l-2.09-17.8,17.1-8.03c19.2-8.73,22.34-12.91,32.46-46.77,4.54-14.66,9.77-25.13,13.96-27.22,3.84-2.09,6.98-5.24,6.98-6.98,0-5.93-11.87-3.49-20.59,3.49Zm-21.29,31.76c0,20.94-18.15,44.67-34.2,45.02-7.33,0-8.03-1.4-6.98-16.4,1.05-14.66,2.09-16.75,14.31-23.03,6.98-3.49,14.66-9.77,16.75-13.26,4.89-9.07,10.12-5.24,10.12,7.68Z"/>
    <path class="background" d="m391.22,201.53c0,2.09,4.19,5.24,9.42,7.33,11.87,4.54,29.67,2.79,26.18-2.44-3.14-5.24-35.6-9.42-35.6-4.89Z"/>
    <path class="background" d="m105.73,230.49c-2.79,3.14-2.79,8.73-1.05,16.75,8.73,34.55,6.98,41.88-7.33,28.62-10.12-9.07-10.82-3.14-1.05,11.52,4.89,6.98,9.77,17.1,10.82,21.99,5.58,25.13,10.12,24.08,13.26-3.49,1.4-11.52,3.84-25.13,5.93-30.01,2.79-7.68,2.44-8.38-4.19-6.28-7.33,2.44-7.33,1.75-5.93-20.59,1.4-23.38-1.75-28.97-10.47-18.5Z"/>
    <path class="background" d="m738.49,229.45c-1.05,1.75,1.05,3.49,4.89,3.49,4.19,0,7.33-1.75,7.33-3.49,0-2.09-2.09-3.49-4.89-3.49s-6.28,1.4-7.33,3.49Z"/>
    <path class="background" d="m633.79,232.24l-13.96,1.75,13.96,4.19c12.56,3.84,13.96,5.24,15.01,16.75,1.05,12.56,4.89,16.4,9.42,9.42,3.14-5.24,30.71-4.19,38.04,1.05,4.89,3.49,5.93,8.03,5.24,18.5-1.4,13.61-1.05,13.96,9.07,14.31,10.47.35,10.47,0,10.47-17.45-.35-13.61-1.75-18.15-6.28-19.54-5.24-2.09-4.89-3.49,4.54-12.56,5.58-5.58,10.47-11.17,10.47-12.56s-8.38.35-18.15,4.19c-10.12,3.49-25.13,6.63-33.51,6.63-12.56,0-15.36-1.4-18.85-8.73-2.09-4.89-5.58-8.38-7.68-8.03s-10.12,1.4-17.8,2.09Z"/>
    <path class="background" d="m77.81,246.2c-3.49,1.05-2.09,4.54,4.89,11.52,11.87,12.22,15.36,12.56,15.36,2.09,0-8.73-11.87-16.75-20.24-13.61Z"/>
    <path class="background" d="m175.54,256.32c-3.84,3.49-9.77,13.61-12.91,22.69-3.49,9.42-7.33,16.75-8.73,16.75-4.19,0-9.42-8.03-11.87-18.5-3.84-16.05-9.07-10.47-9.07,9.42,0,10.47-1.4,20.24-3.49,21.29-2.09,1.4-1.75,4.54,1.05,8.73,5.93,9.77,9.42,8.73,9.42-3.49,0-5.93,1.4-10.47,3.49-10.47,5.58,0,10.47,12.91,10.47,28.62,0,8.38,2.09,21.29,4.19,28.97l4.54,13.96,1.05-13.96c.7-7.68,3.14-16.4,5.93-19.2,2.44-3.14,4.89-18.5,5.93-38.39,1.05-18.5,3.84-37,5.93-41.53,5.58-10.47,3.14-12.56-5.93-4.89Z"/>
    <path class="background" d="m228.24,257.02c-2.44,4.19-4.54,10.82-4.54,15.01,0,6.98.35,7.33,5.58,2.09,3.14-2.79,4.89-9.42,4.19-14.66q-1.05-9.07-5.24-2.44Z"/>
    <path class="background" d="m444.62,288.78c-54.1,5.93-101.91,28.27-138.91,64.57-40.83,40.14-68.76,97.37-73.99,150.07-2.79,32.11,4.89,93.88,15.36,120.41,27.22,68.76,68.76,116.57,125.3,143.44,38.04,18.15,63.17,24.08,100.86,24.08,40.14,0,69.1-6.98,106.45-25.13,41.53-20.59,83.06-61.78,104.01-104.01,41.53-83.06,30.01-179.39-28.97-239.42-47.47-48.16-120.76-71.9-188.47-60.73-32.11,5.24-50.26,13.61-78.88,36.65-39.44,31.76-56.19,70.15-56.54,129.48-.35,34.2,0,36.3,12.56,61.78,15.71,32.11,41.18,60.73,63.17,71.9,9.07,4.19,28.97,10.47,43.98,13.26,25.48,5.24,30.36,5.24,56.54,0,63.52-12.56,107.5-60.38,107.5-117.27,0-29.67-22.34-63.17-41.53-63.17-13.61,0-18.15,24.43-9.07,46.42,13.96,33.51-2.09,71.2-38.39,90.74-10.82,5.93-20.24,7.68-41.88,7.68-24.78,0-30.71-1.4-51.3-11.52-41.18-20.24-63.87-56.19-63.87-101.91,0-32.11,10.47-56.19,37.34-85.86,23.03-25.13,38.04-32.46,75.39-36.65,57.24-6.28,94.23,4.89,132.28,40.14,39.44,36.65,55.84,77.83,52.35,131.23-2.44,35.6-8.03,52.35-26.52,79.57-48.16,71.2-132.62,108.19-203.82,89.7-97.03-25.13-159.5-108.19-159.5-211.85,0-75.74,34.9-141.35,93.88-176.95,42.58-25.83,57.94-29.67,117.27-29.67s79.92,4.19,122.15,24.08c28.27,13.26,65.27,42.93,85.86,69.1,16.05,20.24,34.2,55.84,46.77,92.14l8.38,23.73v-20.94c1.05-76.08-58.98-157.4-147.98-201.03-15.36-7.33-37.34-15.71-48.86-18.5-27.22-6.63-77.13-9.07-108.89-5.58Z"/>
    <path class="background" d="m775.14,291.92c0,8.38,6.28,12.91,11.17,8.03,2.79-2.79,2.44-5.58-.7-9.42-5.93-7.33-10.47-6.63-10.47,1.4Z"/>
    <path class="background" d="m212.18,291.57c-1.75,2.44-6.63,5.93-11.17,7.68-6.63,2.44-8.73,6.63-10.47,19.89-1.05,9.07-2.79,22.69-3.84,29.67-1.05,7.33-.7,13.26,1.4,13.26,5.24,0,28.97-55.49,27.92-65.61-.7-6.63-1.75-8.03-3.84-4.89Z"/>
    <path class="background" d="m806.9,350.2c-10.12,10.12-10.82,11.87-4.89,11.87,5.58,0,6.63,1.75,5.24,8.73-1.75,10.47,4.89,11.87,11.87,2.44,5.24-6.98,6.63-16.05,1.75-12.91-2.09,1.05-2.44-3.14-1.4-10.47,1.05-6.63,1.4-12.22.7-11.87-.7,0-6.63,5.58-13.26,12.22Z"/>
    <path class="background" d="m185.66,386.85c-5.93,9.42-6.98,10.12-9.77,4.89-4.89-8.38-7.68,24.43-4.89,52.35l2.09,20.94,11.17-34.9c14.31-45.72,16.05-54.1,11.52-54.1-2.09,0-6.63,4.89-10.12,10.82Z"/>
    <path class="background" d="m810.04,389.99c-2.79,1.75-10.47,3.49-16.4,3.49-6.28,0-11.52,1.05-11.52,2.44,0,5.24,6.28,12.22,13.96,16.05,9.77,4.89,13.96,13.96,5.24,10.47-5.24-1.75-5.58-1.05-2.09,5.24,2.09,3.84,3.84,16.4,4.19,27.57,0,11.17,1.4,26.52,2.79,34.2l2.44,13.96,4.19-13.96c2.44-7.68,4.19-16.4,4.19-19.54s8.03-15.36,17.45-27.57c9.77-11.87,16.75-22.69,16.05-23.73-1.05-1.05-9.77,3.14-19.54,9.07-15.01,9.42-17.8,10.12-20.24,5.24-2.09-3.49-1.4-11.52,1.75-21.64,5.58-19.2,4.89-25.83-2.44-21.29Z"/>
    <path class="background" d="m155.64,581.6c-5.58,12.56-16.05,28.97-23.38,36.3-11.52,12.22-12.22,13.96-5.93,15.36,3.49,1.05,6.63,4.89,6.63,8.38,0,10.47,9.77,7.68,18.15-5.58,4.54-6.63,9.07-12.22,10.12-12.22,2.79,0,11.17,17.8,17.1,35.6,2.09,7.33,5.58,13.26,7.33,13.26s6.98,6.28,11.87,13.96,11.17,13.96,13.96,13.96c6.98,0,6.63-2.09-3.14-15.01-16.4-21.64-30.71-57.59-36.65-92.84l-5.58-34.2-10.47,23.03Z"/>
    <path class="background" d="m797.82,602.89c-2.79,4.54,4.89,14.66,9.07,11.87,1.75-1.05,3.14-4.89,3.14-8.73,0-6.98-8.38-9.07-12.22-3.14Z"/>
    <path class="background" d="m798.52,632.56c-1.05,3.84-3.84,13.96-5.93,22.69-7.68,29.32-17.45,46.77-31.76,56.89-12.22,8.38-19.54,19.54-25.48,38.39-1.05,3.84-5.24,7.33-9.07,8.38-7.68,2.09-9.77,10.47-2.44,10.47,2.09,0,11.17,1.05,19.89,2.09l15.71,2.44v-17.1c0-14.66,1.75-18.85,12.91-31.06,7.33-8.03,13.96-18.85,15.36-24.08,5.24-23.73,5.58-24.43,9.07-14.66,2.09,6.28,1.4,13.96-2.44,24.43-8.38,22.34-8.03,25.83,1.4,26.87,4.54.7,14.66,5.24,21.99,9.77,9.77,6.28,13.26,10.82,13.26,17.45,0,8.03-1.05,8.73-9.42,6.98-9.07-2.09-8.38-1.05,6.98,13.61,9.07,9.07,18.5,15.71,20.94,14.66,5.58-1.75,3.84-27.22-2.79-43.28-2.79-6.98-5.24-18.85-5.24-26.87,0-14.66,8.03-42.23,14.66-50.26,8.03-9.42-.7-7.68-12.22,2.44-6.63,5.93-14.66,10.82-17.8,10.82s-7.33,4.19-9.07,9.07c-4.54,11.87-4.54,14.31.7,9.07,7.68-7.68,11.87-4.54,10.47,8.03-1.75,13.26-3.14,14.31-11.52,7.68-4.54-3.49-5.93-12.91-7.33-44.32-2.09-41.53-6.63-64.22-10.82-50.61Z"/>
    <path class="background" d="m155.64,648.26c-5.58,6.28-5.58,6.98-.7,6.98,4.19,0,5.93,3.14,5.93,9.42,0,17.1,3.84,24.08,14.31,27.92,11.52,4.54,13.61.35,3.14-6.98-4.89-3.49-7.68-10.47-9.42-23.03-2.44-20.94-4.89-23.73-13.26-14.31Z"/>
    <path class="background" d="m82,653.5c-9.77,4.54-11.17,6.63-13.26,24.43-2.09,19.54-13.61,47.12-19.2,47.12s-10.82-18.5-10.82-40.14c0-12.22-1.4-23.03-2.79-24.08-1.75-1.05-6.63,6.63-10.82,16.75-4.19,10.12-11.52,22.34-16.05,26.52-13.61,12.91-11.52,19.54,3.84,10.82q15.36-9.07,15.36,1.4c0,10.47,9.07,29.67,13.96,29.67,2.09,0,5.58,3.84,7.68,8.73l3.84,8.73,5.24-12.91c11.17-29.32,17.8-52.7,19.89-68.41s6.98-20.24,6.98-6.98c0,9.77,7.68,8.73,9.77-1.4,1.4-5.24,3.14-13.26,4.54-17.8,2.44-9.07-1.75-9.42-18.15-2.44Z"/>
    <path class="background" d="m105.38,676.88c-6.63,8.38-7.33,11.17-3.49,13.26,2.44,1.75,6.28,1.75,8.38.35,4.54-3.49,36.65-.7,36.65,3.49,0,1.75,3.14,3.14,7.33,3.14,4.89,0,6.63-1.75,5.93-6.28-.7-4.19-4.89-6.28-13.61-6.98-8.03-.7-15.71-4.19-20.59-9.77-4.54-4.54-9.07-8.38-10.12-8.03-1.05,0-5.93,4.89-10.47,10.82Z"/>
    <path class="background" d="m858.9,707.59c0,16.4.7,19.54,4.54,18.15,5.58-1.75,1.75,7.33-6.98,15.71-6.63,6.98-7.68,9.77-4.19,10.82,2.79,1.05,10.82,7.68,17.8,15.01,15.01,15.71,16.75,16.05,25.48,6.63,6.28-6.98,20.94-9.07,28.27-4.19,2.09,1.4,5.24,6.28,6.63,11.17,4.19,15.01,11.87,24.08,25.48,31.06,18.15,9.42,25.83,4.54,12.56-8.03-5.58-4.89-12.56-9.07-15.71-9.07-5.24,0-13.61-13.26-13.61-21.99,0-2.44-5.93-10.47-13.26-17.45l-13.26-13.26-11.52,11.17-11.52,10.82-7.33-7.33c-4.89-4.89-7.33-11.87-7.33-21.64-.35-8.73-2.09-15.36-4.54-16.4-2.44-.7-4.54-6.63-4.54-13.26s-1.4-11.87-3.49-11.87c-1.75,0-3.49,6.28-3.49,13.96Z"/>
    <path class="background" d="m89.33,714.57c-4.89,9.42-8.03,17.45-6.98,17.45,6.98,0,16.4-9.07,20.94-19.89,6.28-15.36,6.28-15.01,0-15.01-2.79,0-9.07,7.68-13.96,17.45Z"/>
    <path class="background" d="m195.78,711.43c0,1.4,1.4,3.49,3.14,4.54,1.4,1.05,3.84,11.52,5.24,23.38,2.09,22.34,6.28,31.06,14.66,31.06,4.19,0,4.19-1.4.7-6.98-5.93-9.07-1.75-11.87,11.17-7.33,10.12,3.49,10.82,3.14,9.77-4.19-.7-4.89-3.84-8.03-8.73-8.73-6.28-1.05-7.68-3.84-8.73-17.45q-1.05-16.05-13.96-16.75c-7.33,0-13.26,1.05-13.26,2.44Z"/>
    <path class="background" d="m891.36,723.3c-2.79,3.14-3.14,5.58-1.05,6.98,2.09,1.05,3.49,6.28,3.49,10.82,0,10.82,6.98,9.77,12.22-1.4,5.58-12.56,28.62-7.68,23.73,4.89-1.05,2.79-.35,4.89,1.05,4.89,1.75,0,9.07,5.58,16.4,12.22,15.36,13.96,16.4,9.42,3.84-15.01-6.98-13.61-12.22-18.85-22.69-23.03-16.75-6.98-31.41-6.98-37-.35Z"/>
    <path class="background" d="m864.83,769.37c-3.84,3.49-2.79,15.01,1.05,15.01,2.09,0,3.49-3.84,3.49-8.73,0-9.07-.7-10.12-4.54-6.28Z"/>
    <path class="background" d="m243.24,773.21c-2.44,4.19,7.68,13.26,10.82,9.77,1.4-1.05,0-4.89-3.14-7.68-3.14-3.49-6.28-4.19-7.68-2.09Z"/>
    <path class="background" d="m257.9,807.41c-.7,17.1-2.44,34.2-4.19,38.04-1.75,4.89,0,3.84,5.93-2.79l8.38-10.12,9.42,9.42c8.38,8.03,10.82,8.73,25.48,6.63,13.96-2.09,15.71-1.75,13.96,3.49-1.75,4.19,0,5.58,6.28,5.58,4.89,0,8.73-1.4,8.73-3.14,0-6.28-18.5-17.8-28.27-17.8-7.68,0-12.56-3.14-20.24-14.31-5.93-7.68-12.22-19.89-14.66-26.87-6.98-22.69-9.42-19.89-10.82,11.87Z"/>
    <path class="background" d="m276.05,791.01c0,4.19,1.75,7.33,3.84,7.33,1.75,0,5.58,5.24,8.38,11.87,3.49,8.38,9.42,13.96,19.89,18.85,32.81,15.36,33.16,12.56,3.14-15.36-16.05-15.36-30.71-28.27-32.11-28.62-1.75-.7-3.14,2.09-3.14,5.93Z"/>
    <path class="background" d="m683,800.43c-23.73,20.59-54.79,36.65-82.02,41.53-12.56,2.44-28.97,6.63-35.95,9.42l-12.91,4.89,16.4,12.22,16.75,12.22,4.89-10.82c3.84-7.33,9.77-11.87,20.94-16.05,24.78-8.38,42.58-17.8,55.84-28.97l12.22-10.47,1.05,8.73c1.75,13.26,8.03,31.06,10.82,31.06,1.75,0,2.09-7.68,1.05-17.1-1.05-10.82.7-23.38,4.19-33.85,3.14-9.07,5.24-16.75,4.54-17.45-.35-.35-8.38,6.28-17.8,14.66Z"/>
    <path class="background" d="m666.59,842.66c-5.24,5.24-11.17,13.26-13.26,17.45-2.09,4.54-6.28,8.03-9.07,8.03-8.73,0-5.93,5.24,7.33,12.22,6.63,3.49,16.05,11.17,20.94,16.75l8.38,10.12v-12.22c0-9.07-2.44-13.96-9.07-18.85l-9.07-6.63,7.68-12.91c4.19-6.98,6.98-15.36,6.28-18.15-.7-4.54-2.79-3.84-10.12,4.19Z"/>
    <path class="background" d="m348.99,857.67c-10.12,9.42-17.45,18.5-16.05,19.54,1.4,1.4,4.19.7,6.63-1.05s9.77-5.24,16.05-8.03c9.77-3.84,12.22-3.49,17.45,1.4,5.58,4.89,12.56,5.24,51.65,3.14,43.28-2.44,44.32-2.44,22.34-5.24-26.87-3.14-49.21-10.82-57.59-20.24-10.12-11.17-20.59-8.38-40.49,10.47Z"/>
    <path class="background" d="m228.24,872.68c-11.87,8.03-21.64,15.36-21.99,16.4,0,4.54,24.08,14.31,37.69,15.36,20.59,1.75,26.87,8.03,18.15,18.85l-6.63,8.03-5.93-9.07c-8.38-12.91-19.89-11.17-38.39,5.93l-16.05,14.66,2.09,20.94c1.05,11.87,2.79,27.92,3.84,35.95,2.44,15.01,3.49,13.61-19.2,33.51-3.84,3.14-6.98,9.42-6.98,13.96,0,6.63,3.14,4.54,19.89-12.56l19.54-20.24-2.44-25.13c-1.75-21.29-1.05-26.87,4.54-36.3,16.05-26.18,29.67-20.59,27.57,11.17-.35,10.47,0,19.2,1.4,19.2s8.38-11.52,15.01-25.83c6.98-14.31,17.45-30.36,24.43-36.65,6.63-5.93,12.22-11.17,12.22-11.87s-8.38-3.14-18.85-5.58c-23.38-5.24-29.32-11.17-23.73-23.38,2.44-4.54,6.63-9.42,9.77-10.82,7.68-2.79,30.01,9.42,32.11,17.45,1.4,5.93,2.09,5.58,10.12-1.4l8.38-8.03-21.64-9.77c-29.32-13.26-39.09-12.56-64.92,5.24Z"/>
    <path class="background" d="m531.18,865c-4.54,3.84-6.28,6.63-3.49,6.63,7.33,0,14.66-5.58,13.26-9.77-.7-2.09-4.89-.7-9.77,3.14Z"/>
    <path class="background" d="m499.42,866.39l-8.73,4.89h10.47c5.93,0,14.31-2.09,19.2-4.89l8.73-4.89h-10.47c-5.58,0-14.31,2.09-19.2,4.89Z"/>
    <path class="background" d="m454.05,882.1c-4.89,1.4-13.26,2.79-19.2,3.14-7.68.35-11.52,2.79-14.66,9.07-3.49,8.03-3.14,8.73,3.84,8.73,4.19,0,13.26-3.84,20.24-8.73,17.8-12.22,28.27-11.52,38.04,2.44,4.19,6.28,8.38,12.22,8.73,12.91.7.7,5.24-2.09,10.47-6.28,15.01-11.87,29.32-8.73,39.09,9.07,4.89,8.38,16.05,2.44,20.24-11.17,2.09-6.63,2.44-12.22,1.05-12.22-1.75,0-3.14,1.4-3.14,3.14,0,7.68-15.01,8.03-25.48.35-10.12-7.68-10.82-7.68-20.59-2.09-11.17,6.63-19.89,5.24-28.97-4.89-6.63-7.33-15.01-8.38-29.67-3.49Z"/>
    <path class="background" d="m715.81,888.73c0,9.07-2.09,11.87-13.96,17.8-8.03,4.19-20.59,6.98-30.36,6.98-15.71.35-16.4.7-9.77,5.58,5.24,3.84,11.52,4.89,23.38,3.14l16.4-2.09-3.49,10.47c-2.79,8.38-2.44,12.22,1.75,18.5,3.14,4.19,5.58,10.82,5.58,14.66,0,14.31,7.33-.7,10.82-22.34,3.84-24.78,10.82-40.14,20.59-46.42,9.07-5.58,8.73-8.38-.7-10.47-4.54-.7-10.82-2.79-13.96-4.19-5.24-2.09-6.28-.7-6.28,8.38Z"/>
    <path class="background" d="m392.27,890.13c3.49,10.82,23.38,11.87,23.38,1.05,0-3.14-3.84-4.89-12.22-4.89-7.33,0-12.22,1.4-11.17,3.84Z"/>
    <path class="background" d="m677.41,968.3c0,2.09,3.84,5.24,8.73,7.33,4.54,2.09,9.42,8.03,10.82,12.91,2.44,10.47,3.14,10.47,14.31,1.75,12.56-9.77,14.31-8.73,11.52,6.98-3.49,18.15,1.75,21.29,6.98,4.54,2.44-7.33,6.98-17.45,9.77-22.69,6.28-10.82,3.14-16.75-5.58-10.47-11.17,8.03-15.71,8.73-26.52,4.19-15.36-5.93-30.01-8.38-30.01-4.54Z"/>
    <path class="background" d="m724.18,1023.45c-4.89,7.33-4.89,9.77-1.05,14.66,2.79,3.14,8.73,7.33,13.61,9.42,4.89,2.09,15.36,8.38,23.38,13.61,8.03,5.58,17.45,33.85,20.94,8.38,5.24-1.05,4.89-1.75-2.44-4.89-11.17-4.89-16.05-10.82-19.2-23.03-2.79-10.47-9.42-16.4-11.52-10.12-2.79,9.07-8.03,3.84-5.93-6.28,2.09-9.07,1.4-10.47-4.89-10.47-3.84,0-9.77,3.84-12.91,8.73Z"/>
  </g>
</svg>