<?xml version="1.0" encoding="UTF-8"?>
<svg data-name="Capa 1" xmlns="http://www.w3.org/2000/svg" width="1165.25" height="1080" viewBox="0 0 1165.25 1080">

  <path class="background" d="m1163.76,1073.31c-22.04-79.88-36.47-150.56-43.17-212.14-8.17-75.22-35.67-142.45-82.4-201.58-6.57-8.35-9.7-18.54-9.33-30.58,1.35-41.94-7.92-81.97-27.81-120.04-5.77-10.99-7.37-24.62-4.79-40.77,1.78-11.05,2.76-32.17,3.01-63.43.31-36.29.18-57.41-.49-63.37-3.62-32.24-16.82-61.03-39.54-86.27-16.64-18.48-34.45-32.91-53.54-43.29-21.37-11.67-45.07-15.72-71.16-12.22-37.15,5.03-69.87-3.13-98.06-24.5-14.92-11.3-22.9-17.38-24.01-18.17-8.54-6.32-16.58-13.26-24.01-20.88-6.57-6.75-10.81-14.92-12.71-24.5-3.68-18.91-5.22-38.07-4.67-57.41.06-1.96.86-3.87,2.21-5.34,2.27-2.46,4.48-4.91,6.69-7.43,3.01-3.38,4.97-7.12,5.89-11.24,2.31-9.95,3.26-20.01,2.9-30.17h-212.17c.04,13.46,1.44,25.18,4.26,35.02,1.23,4.24,4.48,8.29,9.76,12.1,1.66,1.17,2.64,2.95,2.82,4.79,1.6,21.12.25,41.94-4.11,62.51-1.84,8.72-6.02,15.96-12.46,21.74-9.58,8.47-23.82,19.77-42.8,33.95-16.03,11.97-31.31,20.57-45.87,25.85-9.76,3.56-23.15,5.22-40.28,5.03-13.63-.12-27.26-.31-40.89-.55-18.11-.31-34.75,4.24-50.04,13.75-17.44,10.81-33.34,23.52-47.71,38.13-23.52,23.76-37.33,52.31-41.45,85.53-4.36,34.63-4.24,69.26.25,103.89,1.6,12.34,2.33,27.69,2.33,46.05-.06,4.3-1.04,8.35-2.95,12.16-19.83,39.11-30.09,78.65-30.76,118.75-.06.31.06,3.32.31,9.15.49,12.83-3.62,24.74-12.28,35.74-22.04,27.94-39.85,58.64-53.54,92.16-9.15,22.41-17.19,54.52-24.13,96.22-5.46,32.73-10.93,65.52-16.33,98.3-5.28,32.24-15.35,74.85-30.21,127.9-.18.65-.34,1.21-.52,1.84h13.22c8.35-29.97,15.42-60.48,21.07-91.61,11.73-65.27,23.33-130.6,34.69-195.99.25-1.65,1.95-2.45,3.3-1.66-1.35-.79-3.06.07-3.3,1.66-11.36,65.39-22.96,130.72-34.69,195.99-5.65,31.12-12.72,61.64-21.07,91.61h34.24c3.31-15.31,6.7-33.83,10.16-55.69,13.02-81.97,25.36-167.81,37.09-257.52h0c.28-1.93.69-2.96,1.26-3.07-.57.11-.98,1.14-1.26,3.07h0c-11.73,89.71-24.07,175.55-37.09,257.52-3.46,21.86-6.85,40.38-10.16,55.69h30.13c16.65-34.23,30.96-69.42,42.9-105.55,1.3-3.93,2.52-7.65,3.68-11.15-1.16,3.5-2.38,7.22-3.68,11.15-11.95,36.13-26.25,71.32-42.9,105.55h21.53c1.28-3.24,2.64-6.46,4.12-9.64,25.6-55.2,60.66-125.57,105.18-211.04,18.79-36.04,29.47-79.94,32.11-131.71.55-11.36,1.35-19.46,2.39-24.31,2.15-10.25,5.22-17.87,9.21-22.84,12.71-15.6,21.92-30.46,27.63-44.52,6.02-14.8,13.94-39.6,23.82-74.42,1.41-4.97,3.75-6.51,7.12-4.61,1.54.86,2.58,2.7,2.82,4.91,2.89,24.25,6.82,48.38,11.73,72.27,2.15,10.19,7.18,22.6,15.17,37.15,7.25,13.26,11.05,30.03,11.48,50.29.92,45.13-1.04,90.14-5.83,134.9-.06.92-1.54,21.55-4.36,62.01-1.6,22.66-5.65,44.82-12.16,66.56-10.13,33.77-15.23,50.72-15.23,50.9-3.55,14.65-6.72,29.36-9.72,44.08h57.25c.27-.22.51-.45.78-.67,7.46-6.07,15.15-11.89,23.07-17.46-7.92,5.57-15.61,11.39-23.07,17.46-.27.22-.51.45-.78.67h500.83c-5.73-30.69-12.99-57.44-21.86-80.31-7.31-18.73-11.6-36.84-12.96-54.4-1.04-13.45-1.66-20.32-1.66-20.75-.92-8.78-1.72-17.62-2.33-26.46-.92-12.59-2.09-24.87-3.56-36.84-6.26-50.35-7.8-100.88-4.54-151.54.68-10.19,3.44-21,8.29-32.48,15.66-36.72,24.87-75.22,27.69-115.43.18-2.15,1.11-3.93,2.58-4.91,4.24-2.76,7-1.11,8.35,4.97,9.15,41.14,23.82,77.55,44.02,109.17,7.92,12.34,12.77,23.09,14.55,32.17,2.52,12.89,4.48,29.23,5.89,49,2.95,40.89,16.21,83.38,39.79,127.47,34.88,65.33,67.66,131.71,98.36,199.12.19.42.34.81.52,1.23h32.99c-18.51-34.29-34.12-69.87-46.71-106.77-9.46-27.75-14.12-53.66-14-77.73.18-45.13,9.89-89.03,29.17-131.71.68-1.47,1.23-2.18,1.66-2.12-.43-.06-.98.65-1.66,2.12-19.28,42.67-28.98,86.58-29.17,131.71-.12,24.07,4.54,49.98,14,77.73,12.6,36.9,28.2,72.48,46.71,106.77h66.4c-.94-4.21-1.45-6.49-1.49-6.69ZM128.89,722.99c.18-.78.63-.98,1.32-.6-.7-.37-1.14-.17-1.32.6Zm5.17,92.13c.2-7.46.24-14.91.13-22.36.11,7.44.07,14.9-.13,22.36-.15,5.83.46,11.18,1.84,16.02-1.38-4.84-2-10.18-1.84-16.02ZM760.27,263.19c-.37.76-.69,1.54-1.05,2.3-.2-.04-.42-.08-.62-.13.61-1.24,1.4-2.36,2.35-3.28-.23.37-.49.71-.68,1.11h0Zm-162.01,267.69c1.91,26.53,4.25,53.05,7.01,79.55.68,6.26,1.97,6.26,3.87,0,8.53-28.12,20.08-54.77,34.75-80.01.22-.39.43-.74.65-1.12.32-.02.63-.05.94-.07-.56.96-1.1,1.89-1.67,2.88-14.67,25.24-26.22,51.88-34.75,80.01-1.9,6.26-3.19,6.26-3.87,0-2.82-27.06-5.18-54.14-7.12-81.24.06,0,.12,0,.18,0Zm228.65-280.1c14.12-13.08,30.09-20.14,47.83-21.18,1.88-.11,3.77-.13,5.68-.08-1.9-.05-3.8-.03-5.68.08-17.75,1.04-33.71,8.1-47.83,21.18-1.23,1.17-1.17,3.13.12,4.24,6.94,6.08,14.31,11.6,22.1,16.58,15.95,10.18,27.55,23.11,35.04,38.66,0,0,0,0,0,0-7.49-15.55-19.09-28.48-35.04-38.66-7.8-4.97-15.17-10.5-22.1-16.58-1.29-1.11-1.35-3.07-.12-4.24Zm-54.82-39.18c.13,1.19-.07,2.43-.75,3.57-9.2,15.65-16.93,31.68-23.36,48.04-.19-.04-.38-.08-.58-.12,6.55-16.92,14.51-33.47,24.01-49.62.36-.6.55-1.24.67-1.87Zm-46.74-29.41c.41-.55.67-1.11.76-1.66-.09.55-.35,1.11-.76,1.66-.15.2-.36.35-.56.53.19-.17.4-.33.56-.53Zm-81.54-148.34c-.37,7.92-.49,11.97-.49,12.22-.06-.25.12-4.3.49-12.22Zm-24.44-22.04c-.37.06-2.94.12-7.64.12,4.7-.06,7.27-.12,7.64-.12Zm-11.11.55c-2.74.67-5.11,2.22-7.2,4.43,2.09-2.22,4.46-3.76,7.2-4.43Zm-91.35,515.64c3.36,5.94,6.78,11.86,10.31,17.72,7,11.6,11.91,20.81,14.8,27.51,4.18,9.89,7.55,19.71,10.19,29.6,3.13,11.85,5.4,11.67,6.82-.49,2.74-23.98,4.99-47.87,6.83-71.71.02,0,.03,0,.05,0-1.87,24.4-4.16,48.86-6.96,73.41-1.41,12.16-3.68,12.34-6.81.49-2.64-9.89-6.02-19.71-10.19-29.6-2.89-6.69-7.8-15.9-14.8-27.51-3.89-6.46-7.68-12.96-11.36-19.52.38.03.74.07,1.12.1Zm49.53-503.29c.18,43.04-.31,86.15-1.41,129.31,1.11-43.17,1.6-86.27,1.41-129.31-.06-7.65-3.45-11.7-10.1-12.29,6.66.59,10.1,4.64,10.1,12.29Zm-35.43-12.1c-3.43.05-6.28,2.33-7.39,5.49-.02.03-.04.07-.07.1,1.08-3.23,3.99-5.59,7.46-5.59Zm-138.12,198.61c.07.93.34,1.87.84,2.75,9.29,16.27,17.38,33.69,24.53,52.01-.22.05-.44.1-.67.15-7.01-17.75-14.91-34.65-23.94-50.47-.82-1.42-1.03-2.99-.77-4.44Zm-98.54,95.64c.02.13,0,.25.03.38.27,1.06.62,2.06.91,3.11-.16.09-.33.18-.49.27-.15-.57-.35-1.12-.49-1.69-.16-.7-.11-1.4.04-2.07Zm-88.16-36.12c3.14-3.37,6.4-6.57,9.77-9.59-3.37,3.02-6.62,6.22-9.77,9.59-1.81,1.94-3.52,3.88-5.14,5.81,1.62-1.93,3.33-3.87,5.14-5.81Zm23.32,262.13c-7.14,6.67-13.56,13.84-19.42,21.42,5.86-7.58,12.28-14.75,19.42-21.42Zm-17.86-87.87h0c-4.07,4.9-7.68,9.92-10.83,15.05,3.15-5.13,6.76-10.15,10.83-15.05Zm-15.18,170.26c-.25,4.64-1.24,9.43-2.99,14.38,1.75-4.94,2.75-9.73,2.99-14.38Zm-15.21-182.66c.05.58.29,1.07.66,1.45-.37-.37-.61-.87-.66-1.45-.46-6.01-.86-11.87-1.21-17.59.34,5.71.75,11.58,1.21,17.59Zm-19.71,419.74c-7.61,22.6-15.35,45.19-23.15,67.73,7.8-22.53,15.53-45.13,23.15-67.73,1.27-3.81,2.54-7.32,3.79-10.53-1.25,3.22-2.51,6.73-3.79,10.53Zm-2.21-129c-.13.28-.33.49-.53.7.2-.21.4-.42.53-.7,2.85-6.37,5.59-12.78,8.22-19.24-2.63,6.45-5.37,12.87-8.22,19.24Zm16.82,97.57h0c-2.3,2.86-4.68,6.91-7.12,12.15,2.44-5.24,4.82-9.29,7.12-12.15,7.37-9.27,17.25-14.25,29.59-14.98h0c-12.34.74-22.23,5.71-29.59,14.98Zm102.54-311.86c-23.21,17.62-43.04,36.1-59.56,55.51h0c-7.92,9.27-12.16,20.82-12.71,34.57-.74,19.34-1.17,29.23-1.23,29.78-3.13,21.98-7,43.84-11.6,65.51-2.64,12.34-4.05,22.29-4.3,29.84-.31,10.01.06,20.14,1.17,30.39.42,3.99,1.66,5.92,3.71,5.77-2.05.15-3.29-1.78-3.71-5.77-1.1-10.25-1.47-20.39-1.17-30.39.25-7.55,1.66-17.5,4.3-29.84,4.61-21.67,8.47-43.53,11.61-65.51.06-.55.49-10.44,1.23-29.78.55-13.75,4.79-25.3,12.71-34.57h0c16.52-19.4,36.35-37.88,59.56-55.51.83-.63,1.75-.98,2.68-1.09-.93.11-1.85.46-2.68,1.09Zm87.99,335.8c-4.79,3.56-8.72,9.89-11.85,18.91-13.02,37.82-13.75,76.26-2.27,115.37.28.98.64,1.52,1.1,1.6-.46-.08-.83-.62-1.11-1.6-11.48-39.11-10.75-77.55,2.27-115.37,3.13-9.03,7.06-15.35,11.85-18.91,1.51-1.12,3.01-1.95,4.5-2.51-1.49.56-3,1.39-4.5,2.51Zm10.56,134.16h0c4.34-5.72,9.22-9.83,14.66-12.33-5.44,2.5-10.33,6.61-14.66,12.33Zm25.05-15.1c-1.83.17-3.61.49-5.34.95,1.73-.46,3.51-.78,5.34-.95,4.08-.36,8.12-.58,12.14-.66-4.02.08-8.06.3-12.14.66Zm23.09-85.59l-39.36-51.39c-4.17-5.46-7.06-12.89-8.66-22.41-9.52-56.67-19.83-111.07-31.07-163.14-1.66-7.55-3.25-19.77-4.85-36.66-1.17-12.46-3.5-24.68-7.12-36.66-.06-.12-6.14-13.82-18.24-41.14-7.06-15.78-11.67-32.54-13.82-50.29-.12-.96-.07-1.68.08-2.26.01.21-.03.33,0,.56,2.15,17.74,6.75,34.51,13.82,50.29,12.1,27.32,18.18,41.02,18.24,41.14,3.62,11.97,5.96,24.19,7.12,36.66,1.6,16.89,3.19,29.1,4.85,36.66,11.24,52.07,21.55,106.47,31.07,163.14,1.6,9.52,4.48,16.95,8.66,22.41l39.36,51.39c3.38,4.36,6.02,3.81,8.04-1.54,23.58-63.92,48.69-128.14,75.4-192.68,10.07-24.38,18.3-49.3,24.74-74.79.78-3.08,1.2-6.07,1.36-8.99-.05,3.46-.5,7.01-1.43,10.69-6.45,25.48-14.67,50.41-24.74,74.79-26.71,64.53-51.82,128.76-75.4,192.68-2.03,5.34-4.67,5.89-8.04,1.54Zm76.2,125.26c-6.61,2.26-13.11,4.64-19.52,7.13,6.4-2.49,12.91-4.86,19.52-7.13,4.24-1.45,8.21-2.29,11.94-2.51-3.72.22-7.7,1.06-11.94,2.51Zm54.22.8c-.37,2.82-3.56,4.36-6.02,2.82l-108.56-69.63c-3.01-1.9-4.73-5.34-4.48-8.96.03-.41.08-.77.11-1.18-.05,3.43,1.59,6.64,4.45,8.45l108.56,69.63c2.46,1.54,5.65.06,6.02-2.82,4.35-33.89,7.22-67.83,8.63-101.83-1.38,34.57-4.28,69.08-8.7,103.53Zm54.34,1.29c-4.79-18.17-7.61-36.66-8.41-55.45-2.46-58.33-2.82-116.66-1.17-175.05.15-5.28.37-10.55.65-15.81-.24,4.7-.44,9.4-.57,14.12-1.66,58.39-1.29,116.72,1.17,175.05.8,18.79,3.62,37.27,8.41,55.44.37,1.47,2.15,2.15,3.44,1.29l112.55-72.64c1.67-1.09,2.72-2.85,3.06-4.78.15,2.58-.97,5.08-3.13,6.48l-112.55,72.64c-1.29.86-3.07.18-3.44-1.29Zm114.78,5.76c4.22,2.04,8.54,4.36,12.9,6.82-4.36-2.46-8.67-4.78-12.9-6.82Zm-55.34-30.07c-5.2,2.52-7.45,4.74-6.74,6.65-.71-1.91,1.54-4.14,6.74-6.65,26.83-13.08,55.32-19.77,85.35-20.02,7.84-.06,14.88,2.26,21.13,6.9-6.25-4.64-13.29-6.9-21.13-6.9-30.03.25-58.52,6.94-85.35,20.02Zm104.14-131.52c3.68-5.41,7.9-8.21,12.62-8.37-4.72.17-8.94,2.96-12.62,8.37-5.16,7.61-7.86,11.6-8.17,11.97-9.64,11.97-18.67,24.93-27.02,38.99-6.75,11.42-4.18,20.02,7.68,25.85,8.57,4.23,16.72,9.25,24.48,14.98-7.76-5.72-15.9-10.74-24.48-14.98-11.85-5.83-14.43-14.43-7.68-25.85,8.35-14.06,17.38-27.02,27.02-38.99h0c.31-.37,3.01-4.36,8.17-11.97Zm2.4,118.44s0,0,0,0h0s0,0,0,0Zm42.06,105.34c-18.31-13.81-36.97-27.11-55.97-39.94,18.99,12.83,37.65,26.13,55.97,39.94Zm-28.11-115.3c6.73,6.71,13.07,14.09,19.02,22.18.51.69.97,1.19,1.38,1.5-.42-.31-.88-.81-1.38-1.5-5.95-8.09-12.3-15.48-19.02-22.18Zm42.29-402.22c-4.48,6.63-7.18,20.82-8.04,42.61-.55,13.82-4.36,35.37-11.42,64.59-5.83,24.01-11.11,51.76-15.84,83.14-2.09,14.06-5.28,31.07-9.58,51.09-3.25,14.92-8.47,27.81-15.78,38.68-10.19,15.04-21.98,29.47-35.37,43.17-1.54,1.6-4.3,1.04-5.04-1.11-20.94-57.53-43.23-114.27-66.74-170.33-12.71-30.33-23.7-61.28-32.91-92.84-1.69-5.78-2.41-11.07-2.34-15.96.12,4.4.92,9.16,2.41,14.26,9.21,31.56,20.2,62.51,32.91,92.84,23.52,56.06,45.81,112.79,66.74,170.33.74,2.15,3.5,2.7,5.04,1.11,13.39-13.69,25.17-28.12,35.37-43.16,7.31-10.87,12.53-23.76,15.78-38.68,4.3-20.02,7.49-37.03,9.58-51.09,4.73-31.38,10.01-59.13,15.84-83.14,7.06-29.23,10.87-50.78,11.42-64.59.86-21.8,3.56-35.98,8.04-42.61,15.12-22.14,24.16-46.37,27.34-72.58.05-.03.11-.05.16-.07-2.98,26.89-12.12,51.71-27.58,74.35Zm97.87-8.04c-13.57-13.14-29.04-26.59-46.54-40.34-.52-.41-1.11-.65-1.7-.73.59.08,1.18.31,1.7.73,17.5,13.75,32.97,27.2,46.54,40.34,2.25,2.19,4.35,4.4,6.31,6.63-1.96-2.23-4.06-4.44-6.31-6.63Zm10.12-133.51h0c1.05.72,2.1,1.48,3.16,2.18-1.06-.69-2.11-1.45-3.16-2.18Zm15.97,190.3c.15-5.1-.28-10.1-1.29-15.01,1.01,4.91,1.44,9.92,1.29,15.01h0Zm42.06-66.07c6.13,20.69,11.1,41.36,14.92,62-3.82-20.63-8.79-41.3-14.92-62-.34-1.11-.74-1.69-1.2-1.75.47.06.87.64,1.21,1.75Zm-32.85,130.54c-1.22-5.81-2.32-11.29-3.3-16.44.98,5.14,2.08,10.62,3.3,16.44,1.83,8.64,3.29,16.97,4.4,24.99-1.11-8.02-2.57-16.35-4.4-24.99Zm4.73,88.72c-.06.35-.21.66-.41.9.2-.24.35-.55.41-.9.51-3.07.94-6.22,1.28-9.45-.34,3.23-.76,6.38-1.28,9.45Zm58.29,75.83c.68-1.75,1.11-3.44,1.26-5.07-.14,1.62-.57,3.32-1.26,5.07Zm4.15-110.09v.06c-7.61,9.82-15.35,19.03-23.15,27.63-7.55,8.23-12.16,16.27-13.82,24.13-1.41,6.62-2.04,13.05-1.91,19.3-.14-6.27.5-12.72,1.91-19.36,1.66-7.86,6.26-15.9,13.82-24.13,7.8-8.6,15.53-17.81,23.15-27.63v-.06c.85-1.13,1.32-1.27,1.42-.46-.11-.76-.6-.58-1.42.52Zm55.08,75.65c.67,28.44,2.45,56.81,5.3,85.07-2.85-28.26-4.63-56.63-5.3-85.07Zm4.91-7.74c-.84-.08-1.58.03-2.21.31.63-.28,1.37-.39,2.21-.31.41.03.81.15,1.18.35-.37-.2-.77-.32-1.18-.35Zm3.38,3.81c-.08-.52-.22-1.01-.42-1.46.2.45.35.94.42,1.46,1.89,11.83,3.73,23.22,5.5,34.17-1.77-10.95-3.6-22.34-5.5-34.17Z"/>
  <g id="Romboides" class="group" >
    <path id="Romboides" class="cls-1" d="m559.11,608.15c-1.41,12.16-3.68,12.34-6.82.49-2.64-9.89-6.02-19.71-10.19-29.6-2.89-6.69-7.8-15.9-14.8-27.51-31.62-52.44-56.18-108.07-73.8-166.83-7.43-24.74-14.74-49.55-21.92-74.3-9.58-33.1-22.17-63.3-37.76-90.63-2.15-3.75-.18-8.47,3.99-9.58,24.87-6.45,49.67-8.78,74.36-7.12,17.74,1.23,30.52,2.7,38.38,4.48,12.83,2.89,24.68,8.35,35.67,16.52,11.24,8.35,17.74,19.59,19.65,33.77,4.97,37.64,7.43,75.4,7.37,113.29,0,23.27-1.35,61.03-3.93,113.28-2.03,41.08-5.46,82.28-10.19,123.72Z"/>
    <path id="Romboides" class="cls-1" d="m617.2,225.13c9.58-8.17,20.88-13.69,33.89-16.58,38.38-8.72,77.37-7.98,116.91,2.21,3.68.98,5.46,5.22,3.5,8.53-13.14,22.35-23.46,45.44-30.95,69.26-12.83,40.71-25.24,81.48-37.33,122.37-7.18,24.31-17.93,50.53-32.24,78.65-.06.18-9.09,15.72-27.02,46.66-14.67,25.24-26.22,51.88-34.75,80.01-1.9,6.26-3.19,6.26-3.87,0-11.05-106.04-15.29-212.32-12.65-318.92.31-12.59,2.46-26.28,6.45-41.14,3.68-13.63,9.7-24.01,18.05-31.07h0Z"/>
  </g>
  <g class="group" id="Infraespinoso">
    <path id="Infraespinoso" class="cls-1" d="m400.17,265.41c8.66,9.03,14.06,19.77,16.33,32.17,2.09,11.6,3.13,17.5,3.19,17.68,9.39,37.76,18.6,72.82,27.63,105.18,5.53,19.96-1.29,25.97-20.45,18.17-14.98-6.14-29.72-12.77-44.15-19.96-17.5-8.66-31.07-17.32-40.77-25.97-23.58-21.06-39.48-47.59-47.65-79.64-.43-1.84.31-3.75,1.84-4.79,30.58-20.2,63.55-34.94,98.86-44.33,1.84-.49,3.81.06,5.16,1.47h0Z"/>
    <path id="Infraespinoso" class="cls-1" d="m760.19,269.02c2.7-5.47,9.14-8.04,14.93-5.95,32.12,11.8,63.35,27.38,93.71,46.7,1.88,1.21,2.69,3.56,1.97,5.69-7.65,21.82-17.95,41.26-30.9,58.24-8.84,11.54-20.42,21.74-34.67,30.46-13.32,8.13-27.16,15.27-41.54,21.48-.43.18-5.71,2.7-15.88,7.65-8.56,4.18-16.71,6.03-24.44,5.56-9.94-.58-13.33-5.63-10.24-15.08,12.08-36.72,22.31-73.16,30.75-109.34,3.58-15.4,9.06-30.52,16.32-45.41h0Z"/>
  </g>
  <g class="group" id="Redondo">
    <path id="Redondo" class="cls-1" d="m283.71,355.3c2.21-10.13,5.53-11.17,9.95-3.07,28.31,51.45,71.66,82.28,130.11,92.47,12.59,2.15,13.2,6.39,1.9,12.65-17.5,9.76-35.86,14.86-55.08,15.41-19.22.55-36.78-4.48-52.62-15.1-32.85-21.98-44.27-56.12-34.26-102.36h0Z"/>
    <path id="Redondo" class="cls-1" d="m868.56,355.3c3.13-5.59,6.75-6.51,10.75-2.76,2.03,1.78,3.32,4.48,3.93,8.1,4.48,26.34.61,49.73-11.54,70.12-11.91,20.02-29.47,33.03-52.62,39.05-26.34,6.88-52.87,2.7-79.58-12.53-10.93-6.2-10.19-10.44,2.21-12.65,56.49-9.95,98.79-39.73,126.85-89.34h0Z"/>
  </g>
  <g class="group" id="Dorsal ancho">
    <path  id="Dorsal ancho" class="cls-1" d="m508.55,547c-14.18-32.91-27.94-62.38-41.14-88.42-5.34-10.56-11.3-10.93-17.87-1.04-12.83,19.22-28.74,30.64-47.71,34.26-33.59,6.32-64.96,1.72-94.25-13.82-3.13-1.66-4.48-.74-4.05,2.76,2.15,17.74,6.75,34.51,13.82,50.29,12.1,27.32,18.17,41.02,18.24,41.14,3.62,11.97,5.96,24.19,7.12,36.66,1.6,16.89,3.19,29.1,4.85,36.66,11.24,52.07,21.55,106.47,31.07,163.14,1.6,9.52,4.48,16.95,8.66,22.41l39.36,51.39c3.38,4.36,6.02,3.81,8.04-1.54,23.58-63.92,48.69-128.14,75.4-192.68,10.07-24.38,18.3-49.31,24.74-74.79,3.5-13.82.74-26.1-8.23-36.96-7.43-8.96-13.45-18.79-18.05-29.47h0Z"/>
    <path  id="Dorsal ancho" class="cls-1" d="m859.27,478.66c-7.68,3.38-21.31,7.55-41.02,12.46-34.38,8.66-63.37,3.19-87.01-16.27-1.6-1.29-5.4-5.77-11.42-13.39-3.81-4.79-8.47-8.66-13.94-11.54-1.47-.8-3.38-.18-4.05,1.35-16.76,37.15-33.65,73.5-50.66,108.99-1.66,3.5-5.03,8.66-10.07,15.53-3.81,5.22-6.75,10.81-8.84,16.76-2.64,7.43-2.39,16.33.61,26.65,9.21,31.56,20.2,62.51,32.91,92.84,23.52,56.06,45.81,112.79,66.74,170.33.74,2.15,3.5,2.7,5.03,1.11,13.39-13.69,25.17-28.12,35.37-43.16,7.31-10.87,12.53-23.76,15.78-38.68,4.3-20.02,7.49-37.02,9.58-51.09,4.73-31.38,10.01-59.13,15.84-83.14,7.06-29.23,10.87-50.78,11.42-64.59.86-21.8,3.56-35.98,8.04-42.61,16.52-24.19,25.91-50.84,28.18-79.88.12-1.29-1.29-2.21-2.52-1.66h0Z"/>
  </g>
  <g class="group"  id="Lumbares">
    <path id="Lumbares" class="cls-1" d="m542.86,654.08c1.6-3.13,2.95-3.01,3.99.31,4.97,15.47,8.1,31.5,9.33,48.14,1.47,19.96,2.27,30.21,2.33,30.82,9.64,92.1,8.6,183.83-3.13,275.14-.37,2.89-3.56,4.36-6.02,2.82l-108.56-69.63c-3.01-1.9-4.73-5.34-4.48-8.96.74-10.13,2.09-18.54,4.11-25.11,26.65-87.37,60.79-171.86,102.42-253.52h0Z"/>
    <path id="Lumbares" class="cls-1" d="m616.17,656.72c1.23-5.22,3.07-5.46,5.46-.61,34.69,69.32,64.9,140.55,90.51,213.68,6.75,19.22,12.28,39.6,16.64,61.09.61,2.95-.61,5.96-3.07,7.55l-112.55,72.64c-1.29.86-3.07.18-3.44-1.29-4.79-18.17-7.61-36.66-8.41-55.45-2.46-58.33-2.82-116.66-1.17-175.05,1.17-41.63,6.51-82.46,16.03-122.56h0Z"/>
  </g>
  <g class="group"  id="Trapecio">
    <path id="Trapecio" d="m525.91,29.13c-.06-4.61,3.5-8.35,7.92-8.41l23.27-.31c8.04-.12,12.1,3.99,12.16,12.4.18,43.04-.31,86.15-1.41,129.31,0,.43.12,4.18.43,11.3.55,13.69-5.96,20.26-19.53,19.71-9.09-.31-13.82-.49-14.25-.49-28.86,1.17-57.72,1.04-86.51-.31-14.67-.68-15.53-4.18-2.7-10.38,10.87-5.22,21.49-10.99,31.87-17.25,13.14-7.92,21.49-15.84,25.05-23.7,16.03-35.43,23.89-72.76,23.7-111.87h0Z"/>
    <path id="Trapecio" d="m602.66,26.18c3.13-3.99,7.06-6.08,11.85-6.14,4.73,0,7.31-.06,7.68-.12,17.07-1.54,25.24,5.77,24.44,22.04-.37,7.92-.55,11.97-.49,12.22.8,26.16,6.39,52.25,16.76,78.29,3.25,8.17,7.49,15.1,12.83,20.81,3.62,3.93,10.25,8.35,19.83,13.32,10.19,5.22,20.14,10.87,29.84,17.01,3.5,2.27,4.42,4.48,2.76,6.69-1.04,1.35-3.07,2.15-5.4,2.15l-108.86-.25c-5.83-.06-10.62-4.85-10.75-10.81l-3.32-146.81c-.06-3.01.92-6.02,2.82-8.41h0Z"/>
  </g>
</svg>