<?xml version="1.0" encoding="UTF-8"?>
<svg  data-name="Capa 1" xmlns="http://www.w3.org/2000/svg" width="643.74" height="1035" viewBox="0 0 643.74 1035">
  <g id="Gemelo" class="group">
    <path id="Gemelo"  class="cls-1" d="m57.86,511.35c-3.89-6.13-6.72-13.31-8.56-21.54-21.41-96.63-23.71-189.77-6.98-279.55,9.62-51.71,34.51-98.01,74.69-138.92,1.52-1.52,2.24-1.19,2.11.99-7.18,135.89-10.47,271.9-9.75,407.92,0,12.58-1.65,21.87-5.14,27.86-6.06,10.6-15.41,15.35-28.13,14.29-7.9-.66-13.96-4.35-18.25-11.07h0Z"/>
    <path id="Gemelo"  class="cls-1" d="m547.46,518.59c-6.59-4.41-11.13-10.8-13.63-19.17-1.38-4.61-1.98-12.19-1.91-22.66.92-135.03-1.98-269.99-8.63-404.83-.07-2.17.59-2.5,2.11-.86,52.23,56.32,79.77,123.44,82.6,201.36,1.12,30.3,1.52,60.6,1.12,90.96-.59,46.17-7.25,91.36-20.09,135.49-3.03,10.54-7.25,17.72-12.58,21.47-8.56,6.06-18.25,5.47-28.98-1.78h0Z"/>
    <path id="Gemelo"  class="cls-1" d="m138.29,75.3c.26-2.24.79-2.31,1.52-.2,11.13,30.23,23.12,58.36,36.03,84.25,13.04,26.22,22.13,53.75,27.34,82.6,9.62,53.62,14.75,100.71,15.35,141.22.72,45.65-13.17,86.09-41.69,121.2-6.32,7.71-13.63,13.7-22,17.92-10.6,5.34-17.13,2.17-19.43-9.49-4.28-21.54-5.47-42.09-3.56-61.59,1.12-11.4,1.65-17.26,1.65-17.59,5.47-80.69,5.93-161.31,1.32-242-1.45-24.77-1.84-44.2-1.19-58.23.86-18.31,2.37-37.68,4.68-58.1Z"/>
    <path id="Gemelo"  class="cls-1" d="m483.31,520.3c-41.23-35.9-60.86-81.61-58.95-137.14,1.05-29.97,2.77-56.12,5.14-78.58,3.03-28.78,6.39-52.1,10.14-69.89,4.94-23.91,12.51-46.31,22.59-67.25,17.06-35.44,30.5-66,40.38-91.69.46-1.32,1.98-1.91,2.9-1.19.79.59,1.19,1.32,1.19,2.31.4,19.37.79,38.73,1.12,58.16.33,17.65.13,37.02-.59,58.16-3.36,95.18-2.5,190.29,2.5,285.47.72,12.84-.79,24.7-4.48,35.7-4.35,12.91-11.66,14.89-21.93,5.93h0Z"/>
  </g>
  <g id="Soleo" class="group">
    <path id="Soleo"  class="cls-1" d="m100.41,556.66c5.53,3.36,9.22,9.16,9.88,15.61,7.9,78.45,12.51,158.41,13.77,239.96.13,9.55-.59,19.56-2.17,29.97-1.52,9.95-2.96,19.96-4.28,29.97-.46,3.36-1.52,4.94-3.16,4.81s-3.1-2.04-3.56-4.68c-11.66-62.25-20.95-124.82-27.73-187.72-3.49-32.47-11.66-69.82-24.37-111.98-.86-2.77-.53-5.8.99-8.3,9.35-15.74,22.92-18.31,40.64-7.64h0Z"/>
    <path id="Soleo"  class="cls-1" d="m571.31,554.03c11.33,5.34,14.75,14.03,10.34,26.02-2.7,7.31-4.08,11.13-4.15,11.59-10.08,36.23-17.26,72.98-21.6,110.26-5.14,44.53-7.71,66.92-7.77,67.19-5.27,35.63-11.4,71.14-18.38,106.51-1.05,5.34-2.31,5.4-3.75.13-5.53-20.22-8.5-40.77-8.96-61.52,0-1.32.66-21.93,2.17-61.78,1.98-54.54,5.53-109.01,10.74-163.35,1.25-13.57,3.62-23.12,7.11-28.59,7.31-11.66,18.71-13.77,34.25-6.46h0Z"/>
    <path id="Soleo"  class="cls-1" d="m164.7,558.97c10.93,3.62,16.2,11.13,15.81,22.66-.92,27.47-2.7,55.46-5.34,84.05-1.71,18.77-5.99,46.5-12.91,83.06-7.64,40.64-13.11,81.61-16.47,122.91-.13,1.38-.59,2.5-1.32,3.1-1.25.99-1.91.13-2.04-2.57-4.15-67.45-7.31-134.96-9.49-202.48-.92-28.46,0-56.84,2.7-85.1,0-.33.13-3.95.4-11,.53-15.87,10.08-20.75,28.65-14.62h0Z"/>
    <path id="Soleo"  class="cls-1" d="m498.98,558.97c3.43.53,5.99,3.29,6.13,6.72,5.14,100.19,3.49,200.7-5.01,301.68-1.19,14.23-2.5,14.23-3.95,0-4.61-45.84-11.59-93.53-20.88-143.07-6.92-36.82-11.13-74.04-12.58-111.52-.79-21.01-1.05-32.47-.72-34.45,2.57-16.2,14.95-22.66,37.02-19.43v.07Z"/>
  </g>
  <g>
    <path class="background" d="m642.38,967.62c-3.69-10.61-5.66-16.27-5.86-16.93-3.23-11.53-9.42-21.61-18.51-30.1-8.3-7.77-16.53-15.68-24.7-23.65-10.34-10.08-16.53-19.3-18.64-27.6-2.9-11.4-2.5-24.11,1.19-38.27,4.74-18.25,4.74-41.3,0-69.16-3.75-21.93-4.87-46.17-3.43-72.59.99-17.19,5.07-40.9,12.25-71.27,19.43-81.55,31.75-164.21,36.95-248.06,4.61-74.43-1.38-148.4-18.05-221.84-.92-4.15-1.05-8.3-.46-12.51,6.39-41.43,6.32-80.43-.2-116.85-1.13-6.26-2.03-12.52-2.76-18.78h-67.02c3.84,11.79,7.79,23.56,11.95,35.25,7.51,21.09,16.65,41.82,27.39,62.12,3.58,6.77,7.34,13.48,11.27,20.15,2.4,4.12,4.1,6.01,5.07,5.69-.97.32-2.67-1.57-5.07-5.69-3.94-6.67-7.69-13.39-11.27-20.15-10.74-20.3-19.88-41.02-27.39-62.12-4.17-11.69-8.11-23.46-11.95-35.25h-74.91c4.2,34.48,8.72,68.93,13.88,103.36.72,4.64,1.56,7.57,2.54,8.79-.98-1.22-1.82-4.15-2.54-8.79-5.16-34.43-9.68-68.87-13.88-103.36h-33.98c.03.93.08,1.83.1,2.78.16,5.74.43,11.5.78,17.28.71,11.57,1.81,23.23,3.28,34.98,1.48,11.75,3.33,23.59,5.57,35.52,3.36,17.9,7.57,35.99,12.63,54.3.59,2.11,1.84,3.69,3.36,4.41,1.38.63,2.21.44,2.47-.53-.26.97-1.09,1.15-2.47.53-1.52-.72-2.77-2.31-3.36-4.41-5.06-18.3-9.28-36.4-12.63-54.3-2.24-11.93-4.09-23.77-5.57-35.52-1.48-11.75-2.57-23.41-3.28-34.98-.36-5.78-.62-11.55-.78-17.28-.03-.94-.07-1.84-.1-2.78h-11.46c-.31,4.17-.69,8.48-1.22,13.05-2.04,18.38-.4,46.11,4.94,83.19,1.25,8.5,3.95,17.19,8.1,26.22,5.14,11.13,7.97,19.63,8.56,25.43,1.05,10.87.46,22.46-1.84,34.78-12.19,66.13-17.85,135.29-17.13,207.55.13,10.01.79,19.56,1.91,28.59,1.84,14.56,3.62,23.91,5.34,28.19,23.19,56.38,34.71,115.14,34.65,176.2,0,2.44.2,2.44.59.07.8-4.75,1.06-9.55,1.03-14.38.55,16.54.98,33.1,1.14,49.62,0,.46.53,13.44,1.58,38.8,1.25,29.84-2.5,59.15-11.2,88-4.28,14.29-4.68,28.59-1.05,43.01,2.44,9.55,2.7,21.47.86,35.7-1.84,14.16.33,30.1,6.59,47.75,5.34,15.22,6.78,32.93,4.28,53.29-1.65,13.7-1.12,24.17,1.65,31.42,5.86,15.41,16.14,27.8,30.83,37.08,1.78,1.12,3.89,1.65,5.99,1.38,9.49-1.32,17.98-4.87,25.49-10.74,1.58-1.19,3.69-1.38,5.47-.46,12.58,6.45,24.5,5.47,35.77-2.9,1.58-1.25,3.69-1.78,5.73-1.58,9.42,1.12,17.59-.92,24.5-6.13,3.43-2.57,7.25-4.22,11.4-4.94,10.28-1.78,16.8-5.86,19.56-12.25.86-1.98,2.31-3.49,4.08-4.28,11.72-5.14,15.74-13.17,11.99-24.04Zm-129.1-13.31c9.55.86,19.96.99,31.35.46,3.98-.17,7.23-1.08,9.77-2.71-2.54,1.63-5.79,2.53-9.77,2.71-11.4.53-21.8.4-31.35-.46,0,0,0,0-.01,0h.01Zm45.05-136.74c-9.02,15.61-13.5,26.87-13.37,33.66.33,15.22-3.49,29.18-11.4,41.76-1.12,1.84-2.83,3.23-4.81,3.89h0c1.98-.66,3.69-2.04,4.81-3.89,7.9-12.58,11.72-26.55,11.4-41.76-.13-6.78,4.35-18.05,13.37-33.66.3-.51.63-.97.99-1.37-.35.4-.69.86-.98,1.37Zm1.11-1.49c.32-.34.65-.65.99-.89-.34.23-.67.55-.99.89Zm-82.39,125.32c3.23,8.96,9.55,13.37,18.97,13.17h0c5.48-.13,9.66-.2,12.55-.23-2.88.05-7.07.13-12.55.23-9.42.2-15.74-4.22-18.97-13.17-.07-.2-.12-.42-.19-.62.07.2.12.42.19.62Zm9.47,28.7c-1.74.97-3.28,2.17-4.72,3.49,1.44-1.32,2.97-2.52,4.72-3.49Zm144.9,1.77c-.02.06-.07.13-.1.19.03-.06.08-.13.1-.19Zm-106.03-900.78c52.23,56.32,79.77,123.44,82.6,201.36,1.12,30.3,1.52,60.6,1.12,90.96-.59,46.17-7.25,91.36-20.09,135.49-3.03,10.54-7.25,17.72-12.58,21.47-8.56,6.06-18.25,5.47-28.98-1.78h0c-6.59-4.41-11.13-10.8-13.63-19.17-1.38-4.61-1.98-12.19-1.91-22.66.92-135.03-1.98-269.99-8.63-404.83-.07-2.17.59-2.5,2.11-.86Zm-6.19,681.34c1.98-54.54,5.53-109.01,10.74-163.35,1.25-13.57,3.62-23.12,7.11-28.59,7.31-11.66,18.71-13.77,34.25-6.45h0c11.33,5.33,14.75,14.03,10.34,26.02-2.7,7.31-4.08,11.13-4.15,11.59-10.08,36.23-17.26,72.98-21.61,110.26-5.14,44.53-7.77,66.92-7.77,67.19-5.27,35.64-11.4,71.14-18.38,106.51-1.05,5.34-2.31,5.4-3.75.13-5.53-20.22-8.5-40.77-8.96-61.52-.07-1.32.66-21.93,2.17-61.78Zm-43.54-639.62c-.15-.01-.29-.2-.44-.28.15.08.29.27.44.28Zm-51.31,270.37c1.05-29.97,2.77-56.12,5.14-78.58,3.03-28.78,6.39-52.1,10.14-69.89,4.94-23.91,12.52-46.31,22.59-67.25,17.06-35.44,30.5-66,40.38-91.69.46-1.32,1.98-1.91,2.9-1.19.79.59,1.19,1.32,1.19,2.31.4,19.37.79,38.73,1.12,58.16.33,17.65.13,37.02-.59,58.16-3.36,95.18-2.5,190.29,2.5,285.47.72,12.84-.79,24.7-4.48,35.7-4.35,12.91-11.66,14.89-21.93,5.93h0c-41.23-35.9-60.86-81.61-58.95-137.14Zm37.61,195.23c2.57-16.2,14.95-22.66,37.02-19.43v.07c3.43.53,5.99,3.29,6.13,6.72,5.14,100.19,3.49,200.7-5.01,301.68-1.19,14.16-2.5,14.16-3.95,0-4.61-45.84-11.59-93.53-20.88-143.07-6.92-36.82-11.13-74.04-12.58-111.52-.72-21.01-1.05-32.47-.72-34.45Zm7.31,254.71c-.03-1.2.18-1.89.6-2.06-.4.19-.6.88-.6,2.06.2,20.22.26,40.38.2,60.53,0,.13.01.25.01.38,0-.13-.01-.25-.01-.38.07-20.16,0-40.31-.2-60.53Zm152.16,148.01c-12.71,8.23-27.01,13.9-42.81,16.99-5.6,1.12-20.55,3.62-44.72,7.57-18.11,2.96-36.16,3.16-54.01.59h0c-4.81-.72-8.3-5.07-7.84-9.95.81-8.58,3.3-15.29,7.36-20.23-4.06,4.94-6.55,11.65-7.36,20.23-.46,4.87,3.03,9.22,7.84,9.95h0c17.85,2.57,35.9,2.37,54.01-.59,24.17-3.95,39.13-6.45,44.72-7.58,15.81-3.1,30.1-8.76,42.81-16.99,2.83-1.84,5.08-3.53,6.74-5.08-1.67,1.54-3.91,3.24-6.74,5.08Z"/>
    <path class="background" d="m232.28,25.9c0-.2-.72-8.84-2.14-25.9h-28.19c-.73,49.5-4.48,98.82-11.23,148.02-.2.99,0,1.91.46,2.5h0c-.46-.59-.66-1.52-.46-2.5,6.75-49.19,10.5-98.51,11.23-148.02h-52.22c1,32.44,3.62,64.66,7.85,96.64.66,5.07,2.96,9.29,6.85,12.51.28.25.61.39.94.43-.33-.05-.66-.19-.94-.43-3.89-3.23-6.19-7.44-6.85-12.52-4.23-31.98-6.85-64.19-7.85-96.64h-82.24c-6.7,39.15-11.89,78.92-15.43,119.3-.23,2.87-.02,4.41.64,4.64-.66-.23-.87-1.78-.64-4.64,3.54-40.38,8.72-80.15,15.43-119.3h-24.24c-.21,1.81-.36,3.69-.61,5.48-3.75,27.2-5.66,40.9-5.66,41.1-2.04,27.07-1.58,54.08,1.32,81.02,1.38,12.71.86,24.96-1.51,36.75-14.16,70.48-19.17,141.42-15.02,212.82,1.98,33.46,6.32,73.71,13.11,120.67,6.32,44.07,14.29,83.85,23.91,119.22,13.24,48.81,15.94,98.21,8.1,148.2-2.96,18.64-3.23,37.08-.79,55.4,3.36,25.29,4.54,40.05,3.69,44.33-3.1,15.22-12.12,28.19-27.07,38.99-22.26,16.07-36.36,38.73-42.22,68.04-.86,4.54-.59,8.23.79,11.07,2.11,4.22,5.66,6.39,10.6,6.52,3.56.07,6.52,2.7,6.92,6.26.99,8.96,6.46,12.71,16.47,11.26,4.41-.59,8.83.99,11.86,4.28,6.39,7.05,14.56,9.35,24.57,7.05,1.98-.46,4.08,0,5.6,1.32,11.4,9.68,23.91,11.13,37.41,4.35,1.78-.86,3.89-.59,5.27.72,14.69,13.37,29.51,12.65,44.59-2.31,16.34-16.14,23.38-34.45,21.14-54.8-1.45-12.91-2.17-19.5-2.17-19.83-.07-13.37,1.71-26.48,5.34-39.39,4.54-16.14,6.26-32.41,5.14-48.87-.66-9.68-.2-19.89,1.38-30.5,1.98-13.5,1.65-26.81-.99-39.92-5.07-24.9-7.64-37.81-7.71-38.66-3.75-41.3-3.62-89.12.53-143.4,3.75-49.47,11.99-93.93,24.63-133.45,7.97-24.96,12.71-44.07,14.36-57.17,4.81-39.46,5.27-79.17,1.32-119.02-4.08-40.9-9.62-81.68-16.6-122.25-2.5-14.49,0-31.88,7.57-52.23,10.28-27.73,14.89-60.07,13.77-97.16Zm-40.53,125.13c-.16-.07-.33-.23-.51-.45.17.22.34.38.51.45Zm-9.81-135.01c-1.44,10.43-2.86,20.39-4.25,29.86,1.39-9.47,2.81-19.43,4.25-29.86Zm-14.74,92.84c-.06.07-.15.1-.22.16.07-.06.16-.09.22-.16ZM49.3,489.81c-21.41-96.63-23.71-189.77-6.98-279.55,9.62-51.71,34.51-98.01,74.69-138.92,1.52-1.51,2.24-1.19,2.11.99-7.18,135.89-10.47,271.9-9.75,407.92.07,12.58-1.65,21.87-5.14,27.86-6.06,10.61-15.41,15.35-28.13,14.29h0c-7.9-.66-13.96-4.35-18.25-11.07-3.89-6.13-6.72-13.31-8.56-21.54Zm9.49,82.8c-.86-2.77-.53-5.8.99-8.3,9.35-15.74,22.92-18.31,40.64-7.64h0c5.53,3.36,9.22,9.16,9.88,15.61,7.9,78.45,12.51,158.41,13.77,239.96.13,9.55-.59,19.56-2.17,29.97-1.51,9.95-2.96,19.96-4.28,29.97-.46,3.36-1.51,4.94-3.16,4.81-1.65-.13-3.1-2.04-3.56-4.68-11.66-62.25-20.95-124.82-27.73-187.72-3.49-32.47-11.66-69.82-24.37-111.98Zm15.84,244.68c-.09.66-.08,1.44.04,2.33,3.49,28.39,4.94,56.91,4.35,85.56-.2,12.91,1.45,27.14,5.07,42.75.66,2.63,2.77,4.68,5.47,5.14h0c8.89,1.48,17.64,2.22,26.23,2.21-8.6.02-17.34-.72-26.23-2.21h0c-2.7-.46-4.81-2.5-5.47-5.14-3.62-15.61-5.27-29.84-5.07-42.75.59-28.65-.86-57.17-4.35-85.56-.12-.89-.13-1.66-.04-2.33Zm3.52-2.94s0,0,0,0h0s0,0,0,0Zm92.16,14.62c-.86.46-1.45,1.32-1.91,2.7-5.14,14.69-9.29,29.64-12.38,44.86-2.82,14.06-12.05,21.37-27.64,21.87,15.59-.5,24.82-7.81,27.64-21.87,3.1-15.22,7.25-30.17,12.38-44.86.46-1.38,1.05-2.24,1.91-2.7.3-.15.61-.17.9-.1-.3-.07-.6-.05-.9.1Zm-75.55,173.5c-.72-.2-9.75-1.65-26.94-4.35-16.47-2.63-31.68-8.76-45.71-18.44-12.98-8.96-11.59-14.1,4.08-15.35,5.22-.42,10.47-.76,15.75-1.03-5.28.27-10.53.61-15.75,1.03-15.68,1.25-17.06,6.39-4.08,15.35,14.03,9.68,29.25,15.81,45.71,18.44,17.19,2.7,26.22,4.15,26.94,4.35,19.3,3.89,38.73,5.93,58.42,6.13h0c-19.69-.2-39.13-2.24-58.43-6.13Zm80.43-336.79c-1.71,18.77-5.99,46.5-12.91,83.06-7.64,40.64-13.11,81.61-16.47,122.91-.13,1.38-.59,2.5-1.32,3.1-1.25.99-1.91.13-2.04-2.57-4.15-67.45-7.31-134.96-9.49-202.48-.92-28.46,0-56.84,2.7-85.1,0-.33.13-3.95.4-11,.53-15.87,10.08-20.75,28.65-14.62,10.93,3.62,16.2,11.13,15.81,22.66-.92,27.47-2.7,55.46-5.34,84.05Zm43.34-282.51c.72,45.65-13.17,86.09-41.69,121.2-6.32,7.71-13.63,13.7-22,17.92-10.61,5.34-17.13,2.17-19.43-9.49-4.28-21.54-5.47-42.09-3.56-61.59,1.12-11.4,1.65-17.26,1.65-17.59,5.47-80.69,5.93-161.31,1.32-242-1.45-24.77-1.84-44.2-1.19-58.23.86-18.31,2.37-37.68,4.68-58.1.26-2.24.79-2.31,1.51-.2,11.13,30.23,23.12,58.36,36.03,84.25,13.04,26.22,22.13,53.75,27.34,82.6,9.62,53.62,14.75,100.71,15.35,141.22Z"/>
  </g>
</svg>