<?xml version="1.0" encoding="UTF-8"?>
<svg  data-name="Capa 1" xmlns="http://www.w3.org/2000/svg" width="98.85" height="76.56" viewBox="0 0 98.85 76.56">
  <path class="background" d="m98.71,67.96c-.41-11.37-1.64-22.66-3.7-33.85-.94-5.11-2.14-9.55-3.61-13.34-1.19-3.05-1.89-6-2.11-8.86-.17-2.19-.27-3.31-.27-3.38-.15-1.43-.28-2.87-.38-4.31-.1-1.43-.24-2.83-.39-4.22h-10.42c-1.09,1.47-2.12,3.01-3.1,4.66-1.1,1.86-.68,3.26,1.25,4.21,1.4.69,2.72,1.51,3.99,2.44-1.26-.93-2.59-1.75-3.99-2.44-1.93-.95-2.35-2.35-1.25-4.21.98-1.64,2.01-3.19,3.1-4.66h-2.36c-.36.39-.72.78-1.09,1.17-.25.26-.7.17-.82-.18-.12-.33-.25-.66-.37-.99h-26.68c-.06,3.6-.21,7.19-.47,10.78-.26,3.59-.61,7.17-1.07,10.75,0,0,0,0,0,.01,0,0,0,0,0-.01.46-3.58.82-7.16,1.07-10.75.26-3.59.41-7.18.47-10.78h-21.19c-.09.25-.19.5-.28.75-.33.87-.76.96-1.31.25l-.76-1h-11.14c-.21.71-.4,1.43-.55,2.15.16-.72.34-1.43.55-2.15h-1.2c-.12,1.68-.3,4.19-.53,7.54-.26,3.69-.92,7.3-1.98,10.84-1.65,5.5-2.48,8.26-2.48,8.29C2.25,40.72.39,54.98.08,69.47c-.05,2.36-.07,4.73-.08,7.09h2.28c-.09-1.82-.13-2.75-.13-2.77-.09-3.8.08-7.6.5-11.39h0c.07-.64.19-.96.35-.98-.17.02-.28.35-.35.98h0c-.42,3.79-.59,7.59-.5,11.39,0,.02.04.95.13,2.77h10.84c.01-.28.02-.57.03-.85.11-2.15.68-4.06,1.73-5.72.15-.23.38-.36.62-.39-.24.03-.47.16-.62.39-1.05,1.66-1.62,3.57-1.73,5.72-.01.28-.02.57-.03.85h33.98c.03-3.57-.15-7.13-.56-10.68-.11-.95.23-1.16,1.02-.62,1.11.75,2.27.75,3.48,0,.87-.55,1.27-.31,1.19.72-.29,3.55-.4,7.07-.36,10.58h25.12c1.29-2.27,2.94-4.42,4.94-6.44.27-.27.62-.42.99-.44-.37.02-.72.17-.99.44-2,2.02-3.64,4.17-4.94,6.44h13.07c1.05-4.87,2.65-9.59,4.85-14.16h0c.34-.7.59-1.04.77-1.03-.18,0-.43.33-.77,1.03-2.2,4.57-3.8,9.29-4.85,14.16h8.8c0-3.15-.05-6.01-.14-8.6ZM11.88,17.42c.04.16.1.25.18.26-.08-.01-.14-.1-.18-.26-.87-2.95-1.3-5.87-1.31-8.78,0,2.9.44,5.83,1.31,8.78Zm-2.86,15.36c1.1-5.67,3.39-10.8,6.88-15.38,1.13-1.49,2.49-2.31,4.08-2.46,5.31-.47,10.32.51,15.05,2.96,1.51.79,1.44,1.35-.23,1.7-5.58,1.16-10.83,3.56-15.75,7.21-3.13,2.31-6.2,4.48-9.22,6.51-.7.47-.97.29-.81-.54Zm36.74,27.44c-.31,1.32-.57,2.65-.78,3.99-.13.82-.13,2.16-.02,4.01.34,5.41-2.58,7.99-8.75,7.74-2.01-.08-4.56-.72-7.65-1.91-.37-.14-1.68-.48-3.95-1.02-1.38-.33-2.63-.99-3.74-1.98-7.15-6.38-11.46-14.08-12.91-23.09-.92-5.71.93-10.45,5.56-14.22,6.48-5.27,14.02-9.39,22.63-12.34,1.84-.63,3.38-.55,4.63.26.58.37,1.53,1.41,2.86,3.12,2.67,3.45,4.11,7.01,4.32,10.68.49,8.37-.25,16.63-2.2,24.76Zm40.47-42.58c.08.11.16.19.22.24-.07-.05-.14-.13-.23-.24-1.72-2.34-3.65-4.32-5.77-5.96,2.12,1.64,4.04,3.62,5.77,5.96Zm-8.82-3.12c1.28-.01,2.43.37,3.45,1.13h0c1.23.92,2.27,2.07,3.12,3.46.23.37.96,1.71,2.19,4.02,1.69,3.17,2.76,6.43,3.22,9.78.11.85-.17,1.02-.86.5-3.57-2.72-7.22-5.32-10.95-7.81-2.33-1.55-4.55-2.77-6.66-3.64-2.5-1.04-4.91-1.85-7.23-2.43-1.67-.41-1.73-1-.18-1.75,4.37-2.13,9.01-3.22,13.9-3.26Zm-23.02,7.43l18.33-11.83-18.33,11.83c-.1.07-.23.08-.34.04.11.04.23.03.34-.04Zm34.02,33.74c-2.17,5.19-5.2,9.82-9.1,13.87-.9.93-1.89,1.74-2.98,2.42-.84.53-2.03.94-3.56,1.23-2.11.41-3.86.93-5.25,1.56-4.23,1.93-8.22,1.71-11.99-.66h0c-1.32-.83-1.93-2.03-1.84-3.59.23-3.77-.11-7.37-1.01-10.8-1-3.83-1.66-7.71-1.99-11.63-.44-5.31-.55-9.22-.32-11.75.51-5.71,2.87-10.54,7.07-14.51.97-.93,2.11-1.2,3.4-.83,9.4,2.75,17.74,7.35,25.02,13.81,1.35,1.19,2.43,2.56,3.26,4.09.75,1.4,1.19,3.05,1.31,4.94.25,4.07-.42,8.02-2.02,11.85Z"/>
  <g id="Gluteo medio" class="group">
    <path id="Gluteo medio" class="cls-1" d="m15.9,17.4c1.13-1.49,2.49-2.31,4.08-2.46,5.31-.47,10.32.51,15.05,2.96,1.51.79,1.44,1.35-.23,1.7-5.58,1.16-10.83,3.56-15.75,7.21-3.13,2.31-6.2,4.48-9.22,6.51-.7.47-.97.29-.81-.54,1.1-5.67,3.39-10.8,6.88-15.38h0Z"/>
    <path id="Gluteo medio" class="cls-1" d="m80.86,15.65c1.23.92,2.27,2.07,3.12,3.46.23.37.96,1.71,2.19,4.02,1.69,3.17,2.76,6.43,3.22,9.78.11.85-.17,1.02-.86.5-3.57-2.72-7.22-5.32-10.95-7.81-2.33-1.55-4.55-2.77-6.66-3.64-2.5-1.04-4.91-1.85-7.23-2.43-1.67-.41-1.73-1-.18-1.75,4.37-2.13,9.01-3.22,13.9-3.26,1.28,0,2.43.37,3.45,1.13h0Z"/>
  </g>
  <g id="Gluteo mayor" class="group">
    <path id="Gluteo mayor" class="cls-1" d="m20.87,71.05c-7.15-6.38-11.46-14.08-12.91-23.09-.92-5.71.93-10.45,5.56-14.22,6.48-5.27,14.02-9.39,22.63-12.34,1.84-.63,3.38-.55,4.63.26.58.37,1.53,1.41,2.86,3.12,2.67,3.45,4.11,7.01,4.32,10.68.49,8.37-.25,16.63-2.2,24.76-.31,1.32-.57,2.65-.78,3.99-.13.82-.13,2.16-.02,4.01.34,5.41-2.58,7.99-8.75,7.74-2.01-.08-4.56-.72-7.65-1.91-.37-.14-1.68-.48-3.95-1.02-1.38-.33-2.63-.99-3.74-1.98Z"/>
    <path id="Gluteo mayor" class="cls-1" d="m55.53,74.11c-1.32-.83-1.93-2.03-1.84-3.59.23-3.77-.11-7.37-1.01-10.8-1-3.83-1.66-7.71-1.99-11.63-.44-5.31-.55-9.22-.32-11.75.51-5.71,2.87-10.54,7.07-14.51.97-.93,2.11-1.2,3.4-.83,9.4,2.75,17.74,7.35,25.02,13.81,1.35,1.19,2.43,2.56,3.26,4.09.75,1.4,1.19,3.05,1.31,4.94.25,4.07-.42,8.02-2.02,11.85-2.17,5.19-5.2,9.82-9.1,13.87-.9.93-1.89,1.74-2.98,2.42-.84.53-2.03.94-3.56,1.23-2.11.41-3.86.93-5.25,1.56-4.23,1.93-8.22,1.71-11.99-.66h0Z"/>
  </g>
</svg>