<?xml version="1.0" encoding="UTF-8"?>
<svg data-name="Capa 1" xmlns="http://www.w3.org/2000/svg" width="482.74" height="247.22" viewBox="0 0 482.74 247.22">
  <path class="cls-1" d="m482.69,84.11c-.98-41.88-23.02-65.42-25.74-68.21h-13.66c-6.68-9.17-12.61-14.54-14.15-15.9H53.58c-1.55,1.36-7.48,6.73-14.15,15.9h-13.66C23.06,18.69,1.01,42.23.03,84.11c-1.07,45.44,23.62,71.87,25.74,74.06h13.85c6.82,9.44,12.78,14.87,13.96,15.9h375.57c1.18-1.03,7.15-6.47,13.96-15.9h13.85c2.12-2.2,26.8-28.62,25.74-74.06h-.02Zm-354.56,89.02h-32.39c-3.05-2.66-38.54-34.65-37.01-89.64C60.15,32.81,91.85,4.32,95.75.94h32.39c-3.9,3.38-35.6,31.88-37.01,82.56-1.53,54.99,33.95,86.99,37.01,89.64h0Zm225.2-73.46c-.05,2.79-1.99,5.03-4.52,4.97l-9-.05-.04,27.84c.09,1.06-2.06,1.92-4.59,1.87l-22.42-.12c-1.81-.04-3.34-.5-4.11-1.14l-.03,14.94c-.07,1.51-2.09,2.68-4.62,2.62l-22.42-.12c-2.53-.06-4.67-1.23-4.6-2.73l.23-43.49-72.27-.38-.23,43.92c.14,1.59-2.09,2.68-4.83,2.54l-22.06-.48c-2.53-.06-4.47-1.14-4.4-2.64l.03-14.51c-.25.93-2.24,1.63-4.67,1.3l-21.94-.17c-2.53-.06-4.34-.83-4.43-1.9l.02-28.38-8.59-.05c-2.53-.06-4.48-2.42-4.51-4.99l.61-24.24c.05-2.79,1.99-5.03,4.52-4.97l7.99.03.02-27.5c-.09-1.06,2.06-1.92,4.59-1.87l22.42.12c1.87.05,3.44.52,4.19,1.2l.04-15.23c.07-1.51,2.09-2.68,4.62-2.62l22.42.12c2.53.06,4.67,1.23,4.6,2.73l-.22,43.23,72.27.22.23-43.49c-.14-1.59,2.09-2.68,4.83-2.54l22.06.48c2.53.06,4.47,1.14,4.4,2.64l-.03,14.49c.48-.99,2.39-1.59,4.67-1.28l21.94.17c2.53.06,4.34.83,4.43,1.9l-.04,27.81,9.05.03c2.53.06,4.55,2.2,4.51,4.99l-.08,24.72h-.03Zm33.65,73.46h-32.39c3.05-2.66,38.54-34.65,37.01-89.64-1.41-50.69-33.11-79.18-37.01-82.56h32.39c3.9,3.38,35.6,31.88,37.01,82.56,1.53,54.99-33.95,86.99-37.01,89.64Z"/>
  <g class="cls-1" id="Letra">
    <path d="m46.7,217.73h-11.54c-1.86,0-2.68.82-2.68,2.68v11.62h-7.22c-2.31,0-3.42-1.12-3.42-3.65v-17.8c0-2.54,1.41-3.72,4.54-3.72h15.49c1.86,0,2.68-.82,2.68-2.68v-9.01c0-1.87-.82-2.68-2.68-2.68h-18.62c-12.51,0-18.32,4.84-18.32,15.19v23.24c0,10.35,5.81,15.2,18.32,15.2h23.46c1.86,0,2.68-.82,2.68-2.68v-23.01c0-1.87-.82-2.68-2.68-2.68h0Z"/>
    <path d="m97.56,192.49h-11.1c-1.86,0-2.68.82-2.68,2.68v12.22c0,1.05,0,2.08-.67,3.13l-3.42,5.36c-.52.9-.97,1.26-1.79,1.26h-.74c-.82,0-1.26-.38-1.79-1.26l-3.42-5.36c-.67-1.05-.67-2.08-.67-3.13v-12.22c0-1.87-.82-2.68-2.68-2.68h-11.47c-1.86,0-2.68.82-2.68,2.68v14.3c0,4.62.52,6.11,2.83,9.16l11.4,15.26v9.53c0,1.86.74,2.68,2.68,2.68h12.07c1.87,0,2.68-.82,2.68-2.68v-9.46l11.32-15.34c2.23-3.05,2.83-4.54,2.83-9.16v-14.3c0-1.87-.82-2.68-2.68-2.68h0Z"/>
    <path d="m159.02,192.49h-12.07c-1.57,0-2.54.59-3.42,2.23l-6.63,12.14c-.52.9-.74,1.26-1.34,1.26h-.67c-.59,0-.82-.38-1.34-1.26l-6.7-12.14c-.9-1.64-1.87-2.23-3.42-2.23h-11.99c-1.86,0-2.68.82-2.68,2.68v48.26c0,1.86.82,2.68,2.68,2.68h11.1c1.87,0,2.68-.82,2.68-2.68v-26.22l4.39,8.12c.9,1.72,2.01,2.39,3.95,2.39h2.98c1.93,0,3.05-.67,3.95-2.39l4.39-8.12v26.22c0,1.86.74,2.68,2.68,2.68h11.47c1.87,0,2.68-.82,2.68-2.68v-48.26c0-1.87-.82-2.68-2.68-2.68h0Z"/>
    <path d="m207.66,192.49h-18.17c-12.51,0-18.32,4.84-18.32,15.26v23.17c0,10.35,5.81,15.2,18.32,15.2h18.17c1.87,0,2.68-.82,2.68-2.68v-8.86c0-1.86-.82-2.68-2.68-2.68h-14.97c-3.13,0-4.54-1.11-4.54-3.57v-17.73c0-2.54,1.41-3.72,4.54-3.72h14.97c1.87,0,2.68-.82,2.68-2.68v-9.01c0-1.87-.82-2.68-2.68-2.68v-.02Z"/>
    <path d="m262.32,192.49h-11.54c-1.86,0-2.68.82-2.68,2.68v16.16h-12.44v-16.16c0-1.87-.82-2.68-2.68-2.68h-11.54c-1.87,0-2.68.82-2.68,2.68v48.26c0,1.86.82,2.68,2.68,2.68h11.54c1.87,0,2.68-.82,2.68-2.68v-16.54h12.44v16.54c0,1.86.82,2.68,2.68,2.68h11.54c1.87,0,2.68-.82,2.68-2.68v-48.26c0-1.87-.82-2.68-2.68-2.68Z"/>
    <path d="m318.26,192.49h-11.32c-1.93,0-2.68.82-2.68,2.68v33.96c0,2.01-.9,3.5-6.18,3.5s-6.11-1.49-6.11-3.5v-33.96c0-1.87-.82-2.68-2.68-2.68h-11.69c-1.86,0-2.68.82-2.68,2.68v36.86c0,9.09,4.54,15.19,23.01,15.19s23.01-6.11,23.01-15.19v-36.86c0-1.87-.82-2.68-2.68-2.68h0Z"/>
    <path d="m373.97,192.49h-11.17c-1.87,0-2.68.82-2.68,2.68v15.87l-14.44-16.54c-1.26-1.49-2.46-2.01-4.39-2.01h-7.74c-1.87,0-2.68.82-2.68,2.68v48.26c0,1.86.82,2.68,2.68,2.68h11.17c1.86,0,2.68-.82,2.68-2.68v-24.58l12.74,15.42v9.16c0,1.86.82,2.68,2.68,2.68h11.17c1.86,0,2.68-.82,2.68-2.68v-48.26c0-1.87-.82-2.68-2.68-2.68h0Z"/>
    <path d="m420.15,192.49h-31.73c-1.86,0-2.68.82-2.68,2.68v9.01c0,1.86.82,2.68,2.68,2.68h7.37v25.02h-7.37c-1.86,0-2.68.82-2.68,2.68v8.86c0,1.86.82,2.68,2.68,2.68h31.73c1.86,0,2.68-.82,2.68-2.68v-8.86c0-1.86-.82-2.68-2.68-2.68h-7.22v-25.02h7.22c1.86,0,2.68-.82,2.68-2.68v-9.01c0-1.87-.82-2.68-2.68-2.68Z"/>
    <path d="m475.12,192.49h-11.17c-1.87,0-2.68.82-2.68,2.68v15.87l-14.44-16.54c-1.26-1.49-2.46-2.01-4.39-2.01h-7.74c-1.87,0-2.68.82-2.68,2.68v48.26c0,1.86.82,2.68,2.68,2.68h11.17c1.86,0,2.68-.82,2.68-2.68v-24.58l12.74,15.42v9.16c0,1.86.82,2.68,2.68,2.68h11.17c1.86,0,2.68-.82,2.68-2.68v-48.26c0-1.87-.82-2.68-2.68-2.68h0Z"/>
  </g>
</svg>