<?xml version="1.0" encoding="UTF-8"?>
<svg  data-name="Capa 1" xmlns="http://www.w3.org/2000/svg" width="768.8" height="737.65" viewBox="0 0 768.8 737.65">
  <path class="background" d="m76.51,479.96c29.62,29.48,60.76,54.45,97.6,72.75,14.38,4.01,5.21,10.5,1.9,19.35-22.38,51.8-47.96,108.34-32.89,165.59,0,0,602.9,0,602.9,0,10.12-28.17,17.85-87.04,19.26-132.5,26.42-168.38-100.11-318.36-231.97-411.84C541.1,84.91,416.65,12.03,322.04,1.6,78.67-25.58-112.39,300.14,76.51,479.96ZM139.06,63.63c-.27.33-.53.65-.8.98-.1-.13.19-.47.8-.98Zm-15.25,22.12c-.78,2.1-3.34,2.24-5.1,3.31,1.66-1.1,3.36-2.21,5.1-3.31Zm-52.68,47.52c-.68.89-1.09,2.09-1.97,2.77.65-.93,1.3-1.86,1.97-2.77Zm-54.91,163.61c.25.89-.02,1.84-.01,2.75,0-.92,0-1.84.01-2.75Z"/>
  <path id="Deltoides - Vientre posterior" class="avalible" d="m440.53,288.98c-12.09-37.37-31.02-70.98-56.8-100.83-19.28-27.91-43.65-50.05-73.11-66.41-31.15-9.87-55.03-13.97-71.62-12.29-12.9,1.24-22.67.53-29.29-2.14,16.83-12.47,35.23-17.2,55.2-14.18,3.62.56,6.76.08,8.11-1.29l5.31-5.11,7.32-8.12c-.34-3.45.36-6.58,2.12-9.4.16-14.54,7.01-23.49,20.54-26.83,23.16-5.74,48.02-5.82,74.57-.25,50.84,15.22,86.23,47.65,106.17,97.29,10.14,25.33,11.12,51.03,2.92,77.09-8.02,25.52-18.08,50.18-30.19,73.97-1.53,7.1-2.57,14.3-3.1,21.59-.09,1.49-.48,2.75-1.17,3.78-2.08,2.92-3.67,2.85-4.78-.19-3.37-9.24-7.44-18.14-12.22-26.69Z"/>
  <path id="Deltoides - Vientre medio" class="avalible" d="m262.17,443.79c-31.61-26-60.45-54.8-86.53-86.41-20.55-23.8-34.49-51.06-41.82-81.78-1.85-7.87-4.67-15.37-8.47-22.48-6.92-58.16,18.43-97.15,76.04-116.97,6.62,2.67,16.38,3.39,29.29,2.14,16.6-1.68,40.47,2.41,71.62,12.29,29.46,16.36,53.83,38.5,73.11,66.41,25.78,29.85,44.71,63.46,56.8,100.83-2.07,2.3-2.24,5.84-.51,10.62,12.1,32.74,17.03,69.59,14.81,110.55-.72,13.17,1.57,27.57,6.87,43.19,2.41,7-2.23,14.36-9.49,15.36-62.42,8.42-119.9-6.39-172.45-44.44-5.3-1.01-8.39-4.11-9.28-9.31Z"/>
  <path id="Deltoides - Vientre anterior" class="avalible" d="m67.41,434.64c-43.94-38.71-57.99-85.49-42.16-140.35,6.36-22.05,18.22-35.35,35.56-39.88,7.4-5.95,15.15-6.27,23.23-.96,3.85-7.76,9.35-12.05,16.53-12.87,2.21-.24,4.24,1.84,4.09,4.41-.87,17.27,3.52,33.03,13.15,47.3,4.19,6.89,7.43,14.21,9.72,21.97,9.05,30.26,24.5,56.69,46.37,79.29,27.82,30.09,58.24,57.22,91.27,81.39,1.18,5.14,4.44,8.06,9.79,8.77-.4.33-.77.66-1.12.99,3.51.42,6.23,2.5,9.1,4.9,4.58,3.83,8.97,7.91,13.81,11.42,8.88,6.46,20.49,10.34,30.99,13.31,2.54.72,4.64,2.37,5.34,4.73,2.3.82,4.61,1.64,6.9,2.48,3.93,1.44,5.27,3.27,4.02,5.48-1.11,1.8-4.01,2.61-7.23,2.15-4.32-.78-8.69-.97-13.13-.57-54.13,5.04-105.55-4.55-154.26-28.76-37.3-16.53-71.29-38.26-101.96-65.17Z"/>
</svg>