<?xml version="1.0" encoding="UTF-8"?>
<svg data-name="Capa 1" xmlns="http://www.w3.org/2000/svg" width="904.56" height="1040" viewBox="0 0 904.56 1040">
  <path class="background" d="m903.25,127.19c-1.53-42.53-4.39-84.92-8.44-127.19h-423.89c3,17.37,6.71,34.64,11.19,51.8,8.23,31.38,11.35,64.32,9.24,98.81-.62,10.7,2.37,19.56,8.99,26.52-6.63-6.96-9.61-15.81-8.99-26.52,2.1-34.49-1.01-67.43-9.24-98.81-4.48-17.16-8.19-34.43-11.19-51.8H86.59c19.53,58.88,54.34,110.73,104.47,155.46,3.38,3.02,6.91,5.69,10.58,8.04-3.67-2.35-7.2-5.02-10.58-8.04C140.94,110.73,106.12,58.88,86.59,0H9.38C4.77,46.74,1.87,93.74.86,141.01c-2.29,103.02,0,205.95,6.86,308.7,2.65,40.17,7.32,80.06,14.09,119.67,6.95,40.35,20.4,80.42,40.26,120.04,3.57,6.95,5.49,14.27,5.76,22.05,1.37,32.39.18,62.31-3.57,89.66-5.22,37.79-7.87,56.82-7.87,57.09-2.84,37.6-2.2,75.12,1.83,112.54,1.92,17.66,1.19,34.68-2.1,51.05-1.22,6.06-2.24,12.13-3.36,18.19h22.91c17.67-53.71,48.17-102.88,91.88-147.38.92-.92,1.63-1.35,2.12-1.29-.49-.06-1.2.37-2.12,1.29-43.71,44.5-74.21,93.67-91.88,147.38h222.84c-.17-1-.32-2.01-.49-3.01-3.48-20.13,0-44.28,10.52-72.55,14.27-38.52,20.68-83.44,19.12-134.95,0-.27-1.01-12.44-3.02-36.51-1.92-22.6-.55-44.19,3.93-64.69,19.85-90.85,45.75-200.64,77.77-329.37,24.25-97.71,30.83-194.6,19.58-290.76-1.01-8.69,2.1-10.61,9.33-5.67,10.16,6.86,20.77,6.86,31.84,0,7.96-5.03,11.62-2.84,10.89,6.59-4.3,52.43-4.67,104.39-1.28,155.9,2.56,39.8,11.16,90.76,25.89,152.88,24.89,105.67,49.41,211.44,73.56,317.3,4.12,18.21,4.3,43.64.55,76.49-2.84,25.53-.55,64.04,6.86,115.56,1.74,11.8,5.49,23.88,11.25,36.41,7.14,15.46,11.07,27.26,11.89,35.32,1.25,12.94.72,26.66-1.44,41.07h35.63c2.02-4.65,3.97-9.34,6.16-13.89,23.7-49.22,42.36-91.68,56.08-127.36.16-.46.41-.85.72-1.17-.31.32-.56.71-.72,1.17-13.72,35.68-32.39,78.13-56.08,127.36-2.19,4.55-4.14,9.24-6.16,13.89h97.1c-1.7-48.86-3.71-97.72-6.12-146.56-.05-1.7.22-2.59.83-2.63-.62.04-.89.93-.83,2.63,2.41,48.84,4.42,97.69,6.12,146.56h113.81c-2.55-13.58-5.33-27.15-8.4-40.7-1.28-5.76-1.46-11.53-.64-17.38,8.87-57.55,8.78-111.71-.27-162.31-6.04-33.58-7.96-67.25-6.04-101.01.82-14.18,5.22-29.92,13.17-47.21,23.06-50.5,36.96-103.75,41.72-159.75,1.19-13.45,2.56-26.81,4.12-40.26,1.83-15.1,3.02-28.55,3.57-40.17,5.49-127.17,6.86-228.55,4.21-304.03Zm-641.82,55.72c10.04,3.87,19.45,7.09,28.25,9.68-8.8-2.59-18.2-5.81-28.25-9.68-2.17-.82-7.88-2.39-17.15-4.72,9.27,2.32,14.98,3.9,17.15,4.72ZM54.65,609.82c-14.64-108.05-24.61-216.56-29.83-325.44-3.39-68.8-5.03-103.39-5.03-103.84-.82-34.77.73-69.53,4.57-104.21h0c.68-6.17,1.85-9.17,3.53-9-1.68-.17-2.85,2.83-3.53,9h0c-3.84,34.68-5.4,69.44-4.57,104.21,0,.46,1.65,35.04,5.03,103.84,5.22,108.88,15.19,217.39,29.83,325.44,1.74,13.08,9.15,38.98,22.05,77.49.98,2.99,2.03,4.39,3.15,4.2-1.12.2-2.18-1.2-3.15-4.2-12.9-38.52-20.31-64.41-22.05-77.49Zm135.91,370.12c-.55,12.67-.49,28.47.16,47.29-.65-18.82-.71-34.62-.16-47.29Zm6.54-81.83c-1.92,16.98-3.43,33.42-4.6,49.35,1.17-15.93,2.68-32.37,4.6-49.35.16-1.36.39-2.14.68-2.35-.29.21-.52.99-.68,2.35Zm7.23-300.28c-2.93,26.26-8.05,53.8-15.28,82.71-18.48,73.19-42.36,144.65-71.64,214.28-10.34,24.43-21.87,46.57-34.58,66.33-4.3,6.68-6.13,6.04-5.49-1.92,5.22-59.47,12.9-118.03,23.06-175.57,8.33-47.21,13.27-105.95,14.64-176.12,1.83-91.49,2.65-182.99,2.38-274.48-.09-45.01.91-90.03,3.02-134.95,1.01-19.67,6.22-37.15,15.83-52.33,2.65-4.12,8.42-4.85,11.99-1.56,31.38,29.46,54.44,64.59,69.17,105.31,4.12,11.25,5.67,22.78,4.67,34.77-6.5,78.13-10.52,154.62-12.17,229.46-.64,28.09-2.47,56.18-5.58,84.08Zm33.58,345.48c-.37,2.2-2.93,3.2-4.48,1.83-5.4-4.48-8.6-10.34-9.52-17.38-11.71-88.47-14.55-178.23-8.42-269.26,4.67-68.44,7.5-113.08,8.6-134.04,2.29-44.74,5.86-89.39,10.8-133.95.09-1.01,1.28-16.47,3.48-46.39,2.29-31.02,9.61-61.12,22.05-90.49,1.74-4.03,3.75-4.21,6.13-.55,36.87,57.18,55.9,118.85,57.09,185.09.37,20.49-3.84,45.93-12.63,76.21-18.12,62.67-30.38,120.4-36.78,173.2-13.36,110.43-25.43,195.7-36.32,255.72ZM384.94,222.62c-20.77-1.01-47.94,2.01-81.52,9.06-4.12.82-6.13,5.67-3.66,9.15,34.13,48.22,54.53,103.39,61.39,165.42,3.48,31.38-1.1,64.96-13.72,100.64,0,0,0,0,0,0,4.21,28.55,2.65,56.73-4.76,84.54-8.33,31.29-15.83,62.76-22.51,94.42-5.03,24.06-8.69,56.08-10.98,95.88-4.21,74.11-16.1,147.12-35.77,218.94-.82,2.74-1.74,3.39-2.84,1.92-.64-.82-.91-2.1-.64-3.48,9.61-69.99,14.91-140.17,15.74-210.62.46-31.38,3.29-60.2,8.69-86.55,13.08-63.68,26.62-127.27,40.62-190.67.46-2.1,2.74-3.57,5.4-3.39,2.29.18,4.67-.18,7.05-1.01h0c12.63-35.68,17.2-69.26,13.72-100.64-6.86-62.03-27.26-117.2-61.39-165.42-2.47-3.48-.46-8.33,3.66-9.15,33.58-7.05,60.75-10.06,81.52-9.06,6.43.31,11.74,1.59,15.92,3.81-4.18-2.22-9.49-3.49-15.92-3.81Zm218.03,9.51c.14.03.27.07.4.11-.13-.04-.26-.08-.4-.11-25.18-5.71-50.36-8.3-75.48-7.86,25.13-.44,50.3,2.16,75.48,7.86Zm-94.79-48.67h0s0,0,0,0h0Zm29.46,298.27c-19.67-60.75-35.04-135.5-46.11-224.16-2.2-17.79,2.58-28.33,14.39-31.62-11.81,3.3-16.59,13.83-14.39,31.62,11.07,88.66,26.44,163.41,46.11,224.16,7.82,16.97,12.24,25.46,13.25,25.46-1.02,0-5.43-8.48-13.26-25.46Zm92.41,519.13c-2.1-1.01-3.84-3.2-4.67-6.13-18.76-67.8-29.09-133.58-30.92-197.35-1.1-37.6-4.48-69.53-10.25-95.79-9.24-42.09-18.57-84.17-27.91-126.26-4.3-19.67-4.03-40.35,1.01-62.12.46-2.2,1.56-3.57,3.2-4.12,2.1-.64,4.48,1.28,5.22,4.21,15.46,66.15,30.01,132.39,43.64,198.9,4.85,23.88,7.23,50.5,7.23,79.69-.09,65.05,4.57,129.83,14,194.24.27,1.92.82,4.12,1.65,6.68,2.38,7.05,1.65,9.79-2.2,8.05Zm51.88-116.65c-.82,18.76-3.93,36.69-9.33,53.8-5.22,16.56-9.15,16.29-11.8-.91-9.61-64.14-18.02-128.27-25.25-192.59-8.42-75.12-22.69-148.95-42.73-221.5-9.61-34.86-14.36-62.95-14.18-84.26.64-66.79,19.76-129.28,57.18-187.47h0c2.84-4.39,5.03-4.03,6.4,1.01,2.01,7.32,4.39,14.64,7.23,21.96,3.11,7.96,5.12,15.46,6.04,22.32,25.98,195.06,34.77,390.95,26.44,587.66Zm133.95,72.55c-21.87-37.05-39.8-75.21-53.71-114.27-18.48-51.88-34.68-104.48-48.58-157.73-9.15-35.04-15.1-73.38-17.75-114.91-5.76-90.49-10.7-181.06-14.82-271.64-1.1-23.79,1.56-43.92,8.05-60.29,12.9-32.94,33.12-63.22,60.57-90.94,3.29-3.29,7.96-4.67,12.44-3.84,5.03.91,8.23,4.94,9.79,12.17,7.41,34.49,11.34,69.35,11.89,104.58,1.56,105.22,1.92,210.43,1.28,315.65-.46,76.12,5.58,151.69,18.02,226.72,8.88,53.61,15.83,104.21,20.86,151.88,1.37,13.17-1.37,14.09-8.05,2.65Zm52.52-880.43h0c-35.77,74.38-54.9,153.16-57.46,236.14-1.56,48.95.46,97.71,5.95,146.3,8.33,73.93,8.97,147.85,2.01,221.87-.09,1.74-.18,3.29-.09,4.76.38,3.57.93,5.63,1.67,6.19-.74-.56-1.3-2.62-1.67-6.19-.09-1.46-.09-3.02.09-4.76,6.95-74.02,6.31-147.94-2.01-221.87-5.49-48.58-7.5-97.35-5.95-146.3,2.56-82.98,21.68-161.76,57.46-236.14h0c3.45-7.15,5.97-10.23,7.58-9.22-1.61-1.01-4.13,2.06-7.58,9.22Z"/>
  <g id="Biceps femoral" data-name="Biceps femoral" class="group">
    <path id="Biceps femoral" class="cls-1" d="m148.25,144.21c31.38,29.46,54.44,64.59,69.17,105.31,4.12,11.25,5.67,22.78,4.67,34.77-6.5,78.13-10.52,154.62-12.17,229.46-.64,28.09-2.47,56.18-5.58,84.08-2.93,26.26-8.05,53.8-15.28,82.71-18.48,73.19-42.36,144.65-71.64,214.28-10.34,24.43-21.87,46.57-34.58,66.33-4.3,6.68-6.13,6.04-5.49-1.92,5.22-59.47,12.9-118.03,23.06-175.57,8.33-47.21,13.27-105.95,14.64-176.12,1.83-91.49,2.65-182.99,2.38-274.48-.09-45.01.91-90.03,3.02-134.95,1.01-19.67,6.22-37.15,15.83-52.33,2.65-4.12,8.42-4.85,11.99-1.56h0Z"/>
    <path class="cls-1" id="Biceps femoral" d="m762.07,143.11c5.03.91,8.23,4.94,9.79,12.17,7.41,34.49,11.34,69.35,11.89,104.58,1.56,105.22,1.92,210.43,1.28,315.65-.46,76.12,5.58,151.69,18.02,226.72,8.87,53.61,15.83,104.21,20.86,151.88,1.37,13.17-1.37,14.09-8.05,2.65-21.87-37.05-39.8-75.21-53.71-114.27-18.48-51.88-34.68-104.48-48.58-157.73-9.15-35.04-15.1-73.38-17.75-114.91-5.76-90.49-10.7-181.06-14.82-271.64-1.1-23.79,1.56-43.92,8.05-60.29,12.9-32.94,33.12-63.22,60.57-90.94,3.29-3.29,7.96-4.67,12.44-3.84Z"/>
  </g>
  <g id="Semitendinoso" class="group">
    <path id="Semitendinoso" class="cls-1" d="m635.81,251.26c2.84-4.39,5.03-4.03,6.4,1.01,2.01,7.32,4.39,14.64,7.23,21.96,3.11,7.96,5.12,15.46,6.04,22.32,25.98,195.06,34.77,390.95,26.44,587.66-.82,18.76-3.93,36.69-9.33,53.8-5.22,16.56-9.15,16.29-11.8-.91-9.61-64.14-18.02-128.27-25.25-192.59-8.42-75.12-22.69-148.95-42.73-221.5-9.61-34.86-14.36-62.95-14.18-84.26.64-66.79,19.76-129.28,57.18-187.47h0Z"/>
    <path id="Semitendinoso" class="cls-1" d="m260.42,253.63c1.74-4.03,3.75-4.21,6.13-.55,36.87,57.18,55.9,118.85,57.09,185.09.37,20.49-3.84,45.93-12.63,76.21-18.12,62.67-30.38,120.4-36.78,173.2-13.36,110.43-25.43,195.7-36.32,255.72-.37,2.2-2.93,3.2-4.48,1.83-5.4-4.48-8.6-10.34-9.52-17.38-11.71-88.47-14.55-178.23-8.42-269.26,4.67-68.44,7.5-113.08,8.6-134.04,2.29-44.74,5.86-89.39,10.8-133.95.09-1.01,1.28-16.47,3.48-46.39,2.29-31.02,9.61-61.12,22.05-90.49Z"/>
  </g>
  <g id="Semimembranoso" class="group">
    <path id="Semimembranoso" class="cls-1" d="m347.43,506.89c4.21,28.55,2.65,56.73-4.76,84.54-8.33,31.29-15.83,62.76-22.51,94.42-5.03,24.06-8.69,56.08-10.98,95.88-4.21,74.11-16.1,147.12-35.77,218.94-.82,2.74-1.74,3.39-2.84,1.92-.64-.82-.91-2.1-.64-3.48,9.61-69.99,14.91-140.17,15.74-210.62.46-31.38,3.29-60.2,8.69-86.55,13.08-63.68,26.62-127.27,40.62-190.67.46-2.1,2.74-3.57,5.4-3.39,2.29.18,4.67-.18,7.04-1.01h0Z"/>
    <path id="Semimembranoso" class="cls-1" d="m557.31,513.2c.46-2.2,1.56-3.57,3.2-4.12,2.1-.64,4.48,1.28,5.22,4.21,15.46,66.15,30.01,132.39,43.64,198.9,4.85,23.88,7.32,50.5,7.23,79.69-.09,65.05,4.57,129.83,14,194.24.27,1.92.82,4.12,1.65,6.68,2.38,7.04,1.65,9.79-2.2,8.05-2.1-1.01-3.84-3.2-4.67-6.13-18.76-67.8-29.09-133.58-30.92-197.35-1.1-37.6-4.48-69.53-10.25-95.79-9.24-42.09-18.57-84.17-27.91-126.26-4.3-19.67-4.03-40.35,1.01-62.12h0Z"/>
  </g>
</svg>