<?xml version="1.0" encoding="UTF-8"?>
<svg data-name="Capa 1" xmlns="http://www.w3.org/2000/svg" width="596.29" height="1055" viewBox="0 0 596.29 1055">
  <g id="Tibial posterior" class="group">
    <path id="Tibial posterior" class="cls-1" d="m58.05,167.19c-.41-4.98.61-7.04,3.06-6.18,1.53.55,2.81,2.33,3.24,4.65,22.44,120.18,42.87,240.68,61.31,361.51,8.53,55.8,11.28,111.9,8.26,168.27-.18,2.39-1.04,4.41-2.33,5.26-2.04,1.39-3.92.14-5.63-3.73-27.74-63.31-46.95-129.13-57.64-197.46-9.46-60.66-15.01-121.6-16.64-182.83-.57-20.19.08-44.06,1.96-71.59,1.63-23.86,3.16-47.75,4.59-71.65.08-1.47.02-3.55-.18-6.24Z"/>
    <path id="Tibial posterior" class="cls-1" d="m543.71,244.35l.24,106.84c-6,76.2-13.73,138.92-23.19,188.16-9.55,49.56-26.84,102.29-51.89,158.18-.8,1.77-2.63,2.63-4.16,1.9-3.3-1.59-5.02-4.47-5.14-8.63-1.55-63.64,3.41-129.95,14.87-198.93,18.15-108.84,37.24-217.51,57.27-326.02.73-3.96,2.06-5.14,3.98-3.55.98.86,1.71,2.81,1.9,5.26l6.12,76.79Z"/>
    <path id="Tibial posterior" class="cls-1" d="m44.29,245.21c3.75-1.59,5.14,1.63,4.16,9.67-3.92,30.8-6.18,61.7-6.79,92.7-.57,28.47,1.53,59.29,6.3,92.46,6.69,46.59,14.89,89.89,24.6,129.91,11.46,47.16,19.68,80.06,24.66,98.7,9.38,34.96,5.65,68.23-11.2,99.8-1.88,3.59-3.94,4.77-6.18,3.55-1.41-.8-2.33-2.75-2.26-5.14.2-9.1.43-18.19.67-27.29.29-9.18-.55-18.13-2.51-26.86-8.85-39.61-17.97-79.16-27.35-118.65-10.69-45.12-16.66-90.89-17.93-137.31-1.59-58.74-.82-111.77,2.33-159.09.9-13.22,3.59-29.17,8.08-47.85.55-2.2,1.84-3.92,3.43-4.59Z"/>
    <path id="Tibial posterior" class="cls-1" d="m551.61,244.11c2.65,1.39,4.1,2.92,4.34,4.59,10.48,78.12,12.89,156.32,7.22,234.6-2.41,33.37-7.61,69.74-15.6,109.1-7.3,36.1-15.48,72.02-24.54,107.75-5.1,20.07-6.83,40.45-5.2,61.13,1.02,12.81-1.49,15.4-7.53,7.77-1.35-1.71-2.59-3.75-3.73-6.12-13.14-27.66-16.11-56.72-8.93-87.2,6.24-26.43,15.87-65.9,28.88-118.4,3.22-12.97,6.04-27.37,8.44-43.2,1.96-12.73,4.63-27.17,8.02-43.32,8.2-39.32,11.42-79.2,9.67-119.63.41-29.09-.67-58.13-3.24-87.13-.57-6.85.16-13.5,2.2-19.95Z"/>
  </g>
  <g >
    <path class="background" d="m594.81,991.48c-2.61-13.87-9.32-26.52-20.13-37.94-13.42-14.2-23.6-24.86-30.53-32-7.1-7.34-11.08-14.71-11.93-22.09-1.26-10.48-.49-22.42,2.33-35.8,3.1-14.89,2.75-35.76-1.04-62.6-6.16-43.85-3.65-87.2,7.53-130.03,17.3-66.33,28.39-133.68,33.29-202.05,5.96-83.5,2.02-159.66-11.81-228.48-2.12-10.52-2.53-21.44-1.22-32.74,4.53-39.04,2.75-77.91-5.32-116.63-2.49-11.95-2.98-28.6-1.47-49.93.53-7.71,3.16-15.91,7.89-24.6,2.94-5.39,5.5-10.95,7.83-16.6h-201.58c2.93,12.58,5.93,25.14,8.84,37.71,3.71,16.07,5.43,32.51,5.14,49.32-.37,19.74-.63,39.47-.8,59.17-.16,22.97,4.24,44.93,13.22,65.9,6.4,15.01,8.42,29.64,6.06,43.87-3.39,20.4-6.02,38.35-7.89,53.85-.33,2.73-2.32,19.05-6,48.95-3.67,29.74-4.87,59.58-3.61,89.52.9,21.13,1.47,32.9,1.71,35.31,1.14,11.83,3.73,23.44,7.77,34.82,4.57,13.01,8.93,26.11,13.09,39.28,4.24,13.67,7.49,27.11,9.73,40.32,9.3,55.36,12.38,111.12,9.24,167.29-.04.65-.29,8.08-.73,22.27-.41,12.28-2.06,22.21-4.96,29.8-3.55,9.3-4.96,22.68-4.22,40.14.69,16.68,1.43,33.35,2.2,49.99.29,6.57,2.22,18.93,5.81,37.08,3.26,16.48,3.65,34.37,1.16,53.66-1.51,11.59.96,22.09,7.4,31.51,7.75,11.3,14.24,18.6,19.46,21.91,8.65,5.43,20.03,3.71,34.14-5.14,2.02-1.29,4.47-1.47,6.67-.55,12.97,5.43,23.72,3.9,32.25-4.59,1.65-1.65,4.1-2.14,6.18-1.22,7.34,3.06,14.52,1.45,21.54-4.83,3.79-3.43,8.81-5.2,14.01-5.02,9.38.33,14.18-3.28,14.38-10.83.06-2.02,1.41-3.73,3.3-4.41,7.1-2.45,11.22-5.79,12.36-10.04.49-1.71.06-6.24-1.29-13.58Zm-50.85-640.29c-6,76.2-13.73,138.92-23.19,188.16-9.55,49.56-26.84,102.29-51.89,158.18-.8,1.77-2.63,2.63-4.16,1.9-3.3-1.59-5.02-4.47-5.14-8.63-1.55-63.64,3.41-129.95,14.87-198.93,18.15-108.84,37.24-217.51,57.27-326.02.73-3.96,2.06-5.14,3.98-3.55.98.86,1.71,2.81,1.9,5.26l6.12,76.79.24,106.84Zm11.99-102.49c10.48,78.12,12.89,156.32,7.22,234.6-2.41,33.37-7.61,69.74-15.6,109.1-7.3,36.1-15.48,72.02-24.54,107.75-5.1,20.07-6.83,40.45-5.2,61.13,1.02,12.81-1.49,15.4-7.53,7.77-1.35-1.71-2.59-3.75-3.73-6.12-13.14-27.66-16.11-56.72-8.93-87.2,6.24-26.43,15.87-65.9,28.88-118.4,3.22-12.97,6.04-27.37,8.44-43.2,1.96-12.73,4.63-27.17,8.02-43.32,8.2-39.32,11.42-79.2,9.67-119.63.41-29.09-.67-58.13-3.24-87.13-.57-6.85.16-13.5,2.2-19.95,2.65,1.39,4.1,2.92,4.34,4.59Z"/>
    <path class="background" d="m170.44,0H26.73c2.42,6.01,4.97,11.9,7.77,17.58,4.45,9.02,6.65,17.54,6.61,25.58-.08,21.25-2.35,49.48-6.79,84.69-3.83,30.15-3.06,61.82,2.33,95.03.33,2.04.27,4.08-.18,6.12-8.77,40.87-14.5,81.61-17.19,122.2-2.45,36.96-1.65,77.71,2.39,122.26,5.96,65.88,16.73,131.03,32.31,195.44,6.28,26.07,9.91,47.05,10.89,62.96,1.43,23.62.82,44.99-1.84,64.13-2.77,19.99-3.83,37.88-3.18,53.66.12,2.45,1.57,10.36,4.34,23.74,1.71,8.24,1.88,16.44.49,24.6-1.55,8.77-6.89,17.97-16.03,27.6-11.67,12.24-23.23,24.58-34.69,37.02-2.41,2.61-6.45,12.34-12.12,29.19-4,11.87-1.41,19.48,7.77,22.82,1.77.61,3.3,1.9,4.34,3.61l3.73,6.24c.73,1.22,2.45,2.39,4.71,3.3l30.59,11.93c2.04.77,3.96,1.1,5.75.98,6-.53,12.01,1.26,18.05,5.38,9.38,6.4,17.79,6.34,25.21-.18,1.96-1.71,4.77-1.9,6.91-.43,9.02,6.16,17.07,9.34,24.17,9.55,6.77.2,13.54-3.65,20.31-11.56,6-6.98,10.77-14.69,14.32-23.13,2.73-6.49,3.65-15.24,2.75-26.25-1.67-20.4-.06-40.49,4.83-60.27,2.61-10.61,3.79-20.85,3.55-30.72-.45-17.54.57-36.14,3.06-55.8.53-4.16.29-8.28-.73-12.36-7.59-31.29-12.05-60.84-13.4-88.66-1.02-21.46,1.82-63.39,8.51-125.81,2.94-27.17,9.08-53.48,18.42-78.93,6.65-18.19,10.57-29.74,11.75-34.63,3.14-12.81,4.92-24.92,5.32-36.35,2.53-69.1-2.73-140.04-15.79-212.82-3.02-16.81-3.37-27.45-1.04-31.94,11.1-21.5,17.21-45.46,18.36-71.9,1.02-24.07,1-46.12-.06-66.15-.77-13.95.2-26.84,2.94-38.67,3.76-16.35,7.59-32.68,11.36-49.03h-57.09ZM58.05,167.19c-.41-4.98.61-7.04,3.06-6.18,1.53.55,2.81,2.32,3.24,4.65,22.44,120.18,42.87,240.68,61.31,361.51,8.53,55.8,11.28,111.9,8.26,168.27-.18,2.39-1.04,4.41-2.33,5.26-2.04,1.39-3.92.14-5.63-3.73-27.74-63.31-46.95-129.13-57.64-197.46-9.46-60.66-15.01-121.6-16.64-182.83-.57-20.19.08-44.06,1.96-71.59,1.63-23.86,3.16-47.75,4.59-71.65.08-1.47.02-3.55-.18-6.24Zm-9.67,426.86c-10.69-45.12-16.66-90.89-17.93-137.31-1.59-58.74-.82-111.77,2.33-159.09.9-13.22,3.59-29.17,8.08-47.85.55-2.2,1.84-3.92,3.43-4.59,3.75-1.59,5.14,1.63,4.16,9.67-3.92,30.8-6.18,61.7-6.79,92.7-.57,28.47,1.53,59.29,6.3,92.46,6.69,46.59,14.89,89.89,24.6,129.91,11.46,47.16,19.68,80.06,24.66,98.7,9.38,34.96,5.65,68.23-11.2,99.8-1.88,3.59-3.94,4.77-6.18,3.55-1.41-.8-2.33-2.75-2.26-5.14.2-9.1.43-18.19.67-27.29.29-9.18-.55-18.13-2.51-26.86-8.85-39.61-17.97-79.16-27.35-118.65Z"/>
  </g>
</svg>