<?xml version="1.0" encoding="utf-8"?>
<!-- Generator: Adobe Illustrator 27.4.1, SVG Export Plug-In . SVG Version: 6.00 Build 0)  -->
<svg version="1.1" data-name="Capa 1"  xmlns="http://www.w3.org/2000/svg" xmlns:xlink="http://www.w3.org/1999/xlink" x="0px" y="0px"
	 viewBox="0 0 501.5 232.3" style="enable-background:new 0 0 501.5 232.3;" xml:space="preserve">
<path class="background" d="M474.7,186c-2.5-5.2-3.7-9.9-3.5-14.1c0.2-5,0.7-11.1,1.7-18.5c1-7.6,1.4-22.5,1.1-44.6
	c-0.2-15.3-4.4-29.3-12.6-42c-10.3-15.9-23.8-28.3-40.5-37.3c-8.5-4.6-18.3-6.3-29.2-5.3c-9.4,0.9-14.2,1.3-14.3,1.4
	c-9.4,0.2-16-0.4-19.6-1.9c-13.6-5.7-25.9-13.1-36.9-22.3h-15.3h-0.2h-7.9h-1.3h-7.5h-19.1h-8.3l-4.3,10.4c-2.4,5.9-4.8,5.9-7.2,0
	l-4.2-10.4H238h-19.8h-6.9h-2.5h-6.3h-1.6h-15.7c-3.3,2.6-7.1,5.5-11.3,8.7C159.6,21,144.3,26.2,128,25.7c-0.1,0-3.6-0.4-10.6-1.2
	c-13.6-1.5-26.2,1.4-37.9,8.7c-8.7,5.4-17.6,13.4-26.5,23.8c-12.7,14.8-19.2,31.2-19.5,49.5c-0.3,23.5,0.5,47.1,2.4,70.5
	c0.2,3-1.2,7.1-4.4,12.5c-2.8,4.8-4.7,8.7-5.7,11.7c-3.3,10-5.6,20.4-7,31.2h6.8h40.8h4.3h24.9h5.8c1-3.8,2-7.6,2.9-11.8
	c0.4-1.8,0.9-3.2,1.6-4.4c3.4-5.9,5.3-4.6,5.8,3.8c0.3,4.2,0.7,8.3,1.3,12.5h5.6c-0.1-2.4-0.1-4.8,0-7.3c0.1-2.2,0.8-2.4,2.2-0.7
	l6.5,8h4.6h9.6h9.7h21.9h8.1h67.1h10.5H326h8.4h21.1h9.2h9.7h5.3l6.3-7.6c1.1-1.3,1.7-1.1,1.7,0.6c0,2.4-0.1,4.7-0.3,7h5.9
	c0.7-4.3,1.2-8.8,1.7-13.3c0.7-7.7,2.8-8.7,6.1-3c0.7,1.2,1.3,2.7,1.7,4.5c0.8,4,1.8,7.9,3,11.7h5.7h25h4.5h40.2h6.8
	C486,216,481.6,200.5,474.7,186z"/>
<g id="Pectoral menor" class="group">
	<path id="Pectoral menor" class="st1" d="M121,146.1c5,22.9,16.6,38,34.9,45.5c12,4.9,24.5,7,37.7,6.2c13.4-0.8,25.8-5.7,37.1-14.6
		c4.8-3.8,8.5-8.4,11-13.8c1.2-2.6,2.1-6.5,2.8-11.8c-47.4-1.8-90.9-16.7-126.4-40.8C117.9,126.2,118.8,135.9,121,146.1z"/>
	<path id="Pectoral menor" class="st1" d="M271.7,176.4c6.4,8.6,15.7,14.7,27.9,18.1c9.5,2.6,18.5,3.7,26.9,3.1c8.7-0.6,17.2-2.3,25.5-5.1
		c9-3.1,16.4-8.1,22-15.2c8.6-10.8,13.8-23.6,15.7-38.3c0.9-7.2,1.2-14.5,1-22.1c-35.4,24.1-79,38.9-126.3,40.8
		C265.9,165.7,268.3,171.9,271.7,176.4z"/>
</g>
<g id="Pectoral mayor" class="group">
	<path id="Pectoral mayor" class="st1" d="M246.5,125.2c1.6-14,0.3-29.4-3.6-46.1c-2.6-10.7-8-19.7-16.3-26.9c-2.4-2.1-5.3-3.4-8.5-3.9
		c-9.8-1.3-19.7-1.9-29.6-1.7c-11.4,0.3-21.1,1.8-29,4.7c-9.4,3.4-17.8,8.5-25.2,15.2c-6.5,5.9-11,13.2-13.5,22
		c-2.3,8-3.5,16.3-3.7,24.9c35.5,24.1,79.1,39,126.4,40.8c0.2-1.6,0.4-3.2,0.5-5C244.6,143.2,245.4,135.2,246.5,125.2z"/>
	<path id="Pectoral mayor" class="st1" d="M385.4,85.5c-2.3-7.7-7.1-14.4-14.5-20.3c-11.1-8.8-22.5-14.6-34.4-17.4c-8.3-1.9-22.5-2-42.8,0
		c-9.4,0.9-16.4,4.7-20.9,11.4c-4,5.9-7,13-9.2,21.1c-1.6,6.1-2.6,13.6-2.9,22.6c-0.4,13.9,0,27.7,1.2,41.5c0.3,3.6,0.8,6.9,1.4,10
		c47.3-1.9,90.8-16.7,126.3-40.8c0-1,0-2-0.1-3C389.2,102,387.8,93.7,385.4,85.5z"/>
</g>
</svg>
